<?xml version="1.0" encoding="UTF-8" standalone="no"?>
<!-- Created with Inkscape (http://www.inkscape.org/) -->

<svg
   width="210mm"
   height="297mm"
   viewBox="0 0 210 297"
   version="1.1"
   id="svg11923"
   inkscape:export-filename="bitmap.svg"
   inkscape:export-xdpi="96"
   inkscape:export-ydpi="96"
   inkscape:version="1.2.2 (732a01da63, 2022-12-09)"
   sodipodi:docname="pivot2.svg"
   xmlns:inkscape="http://www.inkscape.org/namespaces/inkscape"
   xmlns:sodipodi="http://sodipodi.sourceforge.net/DTD/sodipodi-0.dtd"
   xmlns="http://www.w3.org/2000/svg"
   xmlns:svg="http://www.w3.org/2000/svg">
  <sodipodi:namedview
     id="namedview11925"
     pagecolor="#ffffff"
     bordercolor="#000000"
     borderopacity="0.25"
     inkscape:showpageshadow="2"
     inkscape:pageopacity="0.0"
     inkscape:pagecheckerboard="0"
     inkscape:deskcolor="#d1d1d1"
     inkscape:document-units="mm"
     showgrid="false"
     inkscape:zoom="2.8284271"
     inkscape:cx="333.7544"
     inkscape:cy="713.8243"
     inkscape:window-width="1920"
     inkscape:window-height="1009"
     inkscape:window-x="-8"
     inkscape:window-y="-8"
     inkscape:window-maximized="1"
     inkscape:current-layer="layer1" />
  <defs
     id="defs11920">
    <marker
       style="overflow:visible"
       id="Arrow5"
       refX="0"
       refY="0"
       orient="auto-start-reverse"
       inkscape:stockid="Arrow5"
       markerWidth="5.8874259"
       markerHeight="6.6094756"
       viewBox="0 0 5.8874262 6.6094758"
       inkscape:isstock="true"
       inkscape:collect="always"
       preserveAspectRatio="xMidYMid">
      <path
         transform="scale(0.5)"
         style="fill:context-stroke;fill-rule:evenodd;stroke:context-stroke;stroke-width:1pt"
         d="m 6,0 c -3,1 -7,3 -9,5 0,0 0,-4 2,-5 -2,-1 -2,-5 -2,-5 2,2 6,4 9,5 z"
         id="path8893" />
    </marker>
    <marker
       style="overflow:visible"
       id="Arrow5-4"
       refX="0"
       refY="0"
       orient="auto-start-reverse"
       inkscape:stockid="Arrow5"
       markerWidth="5.8874259"
       markerHeight="6.6094756"
       viewBox="0 0 5.8874262 6.6094758"
       inkscape:isstock="true"
       inkscape:collect="always"
       preserveAspectRatio="xMidYMid">
      <path
         transform="scale(0.5)"
         style="fill:context-stroke;fill-rule:evenodd;stroke:context-stroke;stroke-width:1pt"
         d="m 6,0 c -3,1 -7,3 -9,5 0,0 0,-4 2,-5 -2,-1 -2,-5 -2,-5 2,2 6,4 9,5 z"
         id="path8893-5" />
    </marker>
  </defs>
  <g
     inkscape:label="Layer 1"
     inkscape:groupmode="layer"
     id="layer1">
    <g
       id="g904-3-9-1-1-77"
       transform="rotate(180,68.317085,119.09312)">
      <g
         id="g839-0-42-89-20-2">
        <rect
           style="opacity:1;fill:none;fill-opacity:1;stroke:#000000;stroke-width:1;stroke-linecap:round;stroke-linejoin:round;stroke-miterlimit:4;stroke-dasharray:none;stroke-opacity:1"
           id="rect833-6-5-6-7-8"
           width="19.815037"
           height="6.1332278"
           x="17.132084"
           y="55.719059"
           ry="0" />
        <circle
           style="opacity:1;fill:none;fill-opacity:1;stroke:#000000;stroke-width:1;stroke-linecap:round;stroke-linejoin:round;stroke-miterlimit:4;stroke-dasharray:none;stroke-opacity:1"
           id="path835-0-0-04-7-2"
           cx="27.039602"
           cy="58.785671"
           r="0.25056517" />
      </g>
      <g
         id="g839-3-0-9-1-5-4"
         transform="translate(9.9075185,-6.1332283)">
        <rect
           style="opacity:1;fill:none;fill-opacity:1;stroke:#000000;stroke-width:1;stroke-linecap:round;stroke-linejoin:round;stroke-miterlimit:4;stroke-dasharray:none;stroke-opacity:1"
           id="rect833-5-9-6-8-85-7"
           width="19.815037"
           height="6.1332278"
           x="17.132084"
           y="55.719059"
           ry="0" />
        <circle
           style="opacity:1;fill:none;fill-opacity:1;stroke:#000000;stroke-width:1;stroke-linecap:round;stroke-linejoin:round;stroke-miterlimit:4;stroke-dasharray:none;stroke-opacity:1"
           id="path835-5-73-9-5-0-4"
           cx="27.039602"
           cy="58.785671"
           r="0.25056517" />
      </g>
    </g>
    <g
       id="g13341"
       transform="rotate(180,63.38883,122.14867)">
      <g
         id="g13333">
        <rect
           style="opacity:1;fill:none;fill-opacity:1;stroke:#000000;stroke-width:1;stroke-linecap:round;stroke-linejoin:round;stroke-miterlimit:4;stroke-dasharray:none;stroke-opacity:1"
           id="rect13329"
           width="19.815037"
           height="6.1332278"
           x="17.132084"
           y="55.719059"
           ry="0" />
        <circle
           style="opacity:1;fill:none;fill-opacity:1;stroke:#000000;stroke-width:1;stroke-linecap:round;stroke-linejoin:round;stroke-miterlimit:4;stroke-dasharray:none;stroke-opacity:1"
           id="circle13331"
           cx="27.039602"
           cy="58.785671"
           r="0.25056517" />
      </g>
      <g
         id="g13339"
         transform="translate(9.9075185,-6.1332283)">
        <rect
           style="opacity:1;fill:none;fill-opacity:1;stroke:#000000;stroke-width:1;stroke-linecap:round;stroke-linejoin:round;stroke-miterlimit:4;stroke-dasharray:none;stroke-opacity:1"
           id="rect13335"
           width="19.815037"
           height="6.1332278"
           x="17.132084"
           y="55.719059"
           ry="0" />
        <circle
           style="opacity:1;fill:none;fill-opacity:1;stroke:#000000;stroke-width:1;stroke-linecap:round;stroke-linejoin:round;stroke-miterlimit:4;stroke-dasharray:none;stroke-opacity:1"
           id="circle13337"
           cx="27.039602"
           cy="58.785671"
           r="0.25056517" />
      </g>
    </g>
    <g
       id="g13355"
       transform="rotate(180,58.41584,125.23329)">
      <g
         id="g13347">
        <rect
           style="opacity:1;fill:none;fill-opacity:1;stroke:#000000;stroke-width:1;stroke-linecap:round;stroke-linejoin:round;stroke-miterlimit:4;stroke-dasharray:none;stroke-opacity:1"
           id="rect13343"
           width="19.815037"
           height="6.1332278"
           x="17.132084"
           y="55.719059"
           ry="0" />
        <circle
           style="opacity:1;fill:none;fill-opacity:1;stroke:#000000;stroke-width:1;stroke-linecap:round;stroke-linejoin:round;stroke-miterlimit:4;stroke-dasharray:none;stroke-opacity:1"
           id="circle13345"
           cx="27.039602"
           cy="58.785671"
           r="0.25056517" />
      </g>
      <g
         id="g13353"
         transform="translate(9.9075185,-6.1332283)">
        <rect
           style="opacity:1;fill:none;fill-opacity:1;stroke:#000000;stroke-width:1;stroke-linecap:round;stroke-linejoin:round;stroke-miterlimit:4;stroke-dasharray:none;stroke-opacity:1"
           id="rect13349"
           width="19.815037"
           height="6.1332278"
           x="17.132084"
           y="55.719059"
           ry="0" />
        <circle
           style="opacity:1;fill:none;fill-opacity:1;stroke:#000000;stroke-width:1;stroke-linecap:round;stroke-linejoin:round;stroke-miterlimit:4;stroke-dasharray:none;stroke-opacity:1"
           id="circle13351"
           cx="27.039602"
           cy="58.785671"
           r="0.25056517" />
      </g>
    </g>
    <g
       id="g904-3-9-1-1-77-4"
       transform="rotate(180,68.356085,125.23629)">
      <g
         id="g839-0-42-89-20-2-7">
        <rect
           style="opacity:1;fill:none;fill-opacity:1;stroke:#000000;stroke-width:1;stroke-linecap:round;stroke-linejoin:round;stroke-miterlimit:4;stroke-dasharray:none;stroke-opacity:1"
           id="rect833-6-5-6-7-8-6"
           width="19.815037"
           height="6.1332278"
           x="17.132084"
           y="55.719059"
           ry="0" />
        <circle
           style="opacity:1;fill:none;fill-opacity:1;stroke:#000000;stroke-width:1;stroke-linecap:round;stroke-linejoin:round;stroke-miterlimit:4;stroke-dasharray:none;stroke-opacity:1"
           id="path835-0-0-04-7-2-1"
           cx="27.039602"
           cy="58.785671"
           r="0.25056517" />
      </g>
      <g
         id="g839-3-0-9-1-5-4-4"
         transform="translate(9.9075185,-6.1332283)">
        <rect
           style="opacity:1;fill:none;fill-opacity:1;stroke:#000000;stroke-width:1;stroke-linecap:round;stroke-linejoin:round;stroke-miterlimit:4;stroke-dasharray:none;stroke-opacity:1"
           id="rect833-5-9-6-8-85-7-1"
           width="19.815037"
           height="6.1332278"
           x="17.132084"
           y="55.719059"
           ry="0" />
        <circle
           style="opacity:1;fill:none;fill-opacity:1;stroke:#000000;stroke-width:1;stroke-linecap:round;stroke-linejoin:round;stroke-miterlimit:4;stroke-dasharray:none;stroke-opacity:1"
           id="path835-5-73-9-5-0-4-2"
           cx="27.039602"
           cy="58.785671"
           r="0.25056517" />
      </g>
    </g>
    <g
       id="g904-3-9-1-1-77-2"
       transform="matrix(1,0,0,-1,62.807355,238.18785)">
      <g
         id="g839-0-42-89-20-2-6">
        <rect
           style="opacity:1;fill:none;fill-opacity:1;stroke:#000000;stroke-width:1;stroke-linecap:round;stroke-linejoin:round;stroke-miterlimit:4;stroke-dasharray:none;stroke-opacity:1"
           id="rect833-6-5-6-7-8-79"
           width="19.815037"
           height="6.1332278"
           x="17.132084"
           y="55.719059"
           ry="0" />
        <circle
           style="opacity:1;fill:none;fill-opacity:1;stroke:#000000;stroke-width:1;stroke-linecap:round;stroke-linejoin:round;stroke-miterlimit:4;stroke-dasharray:none;stroke-opacity:1"
           id="path835-0-0-04-7-2-2"
           cx="27.039602"
           cy="58.785671"
           r="0.25056517" />
      </g>
      <g
         id="g839-3-0-9-1-5-4-9"
         transform="translate(9.9075185,-6.1332283)">
        <rect
           style="opacity:1;fill:none;fill-opacity:1;stroke:#000000;stroke-width:1;stroke-linecap:round;stroke-linejoin:round;stroke-miterlimit:4;stroke-dasharray:none;stroke-opacity:1"
           id="rect833-5-9-6-8-85-7-5"
           width="19.815037"
           height="6.1332278"
           x="17.132084"
           y="55.719059"
           ry="0" />
        <circle
           style="opacity:1;fill:none;fill-opacity:1;stroke:#000000;stroke-width:1;stroke-linecap:round;stroke-linejoin:round;stroke-miterlimit:4;stroke-dasharray:none;stroke-opacity:1"
           id="path835-5-73-9-5-0-4-5"
           cx="27.039602"
           cy="58.785671"
           r="0.25056517" />
      </g>
    </g>
    <path
       style="fill:none;fill-opacity:0.984314;stroke-width:0.0633325"
       d="m 100.25542,179.39729 v 2.50164 h 9.37321 9.37322 v -2.50164 -2.50163 h -9.37322 -9.37321 z m 9.80452,-0.66336 c 0.20052,0.12225 0.39201,0.44836 0.39201,0.66759 0,0.19949 -0.2135,0.55026 -0.40659,0.668 -0.67717,0.41294 -1.44509,-0.31786 -1.07864,-1.0265 0.1216,-0.23516 0.44187,-0.43691 0.69358,-0.43691 0.1045,0 0.28433,0.0575 0.39964,0.12782 z"
       id="path13600" />
    <path
       style="fill:none;fill-opacity:0.984314;stroke-width:0.264583"
       d="M 111.78646,175.56324 C 74.017187,204.27053 74.017187,204.20438 74.017187,204.20438"
       id="path14159" />
    <g
       id="g904-3-9-1-1-77-2-1"
       transform="matrix(1,0,0,-1,82.645221,250.48121)">
      <g
         id="g839-0-42-89-20-2-6-1">
        <rect
           style="opacity:1;fill:none;fill-opacity:1;stroke:#000000;stroke-width:1;stroke-linecap:round;stroke-linejoin:round;stroke-miterlimit:4;stroke-dasharray:none;stroke-opacity:1"
           id="rect833-6-5-6-7-8-79-0"
           width="19.815037"
           height="6.1332278"
           x="17.132084"
           y="55.719059"
           ry="0" />
        <circle
           style="opacity:1;fill:none;fill-opacity:1;stroke:#000000;stroke-width:1;stroke-linecap:round;stroke-linejoin:round;stroke-miterlimit:4;stroke-dasharray:none;stroke-opacity:1"
           id="path835-0-0-04-7-2-2-8"
           cx="27.039602"
           cy="58.785671"
           r="0.25056517" />
      </g>
      <g
         id="g839-3-0-9-1-5-4-9-1"
         transform="translate(9.9075185,-6.1332283)">
        <rect
           style="opacity:1;fill:none;fill-opacity:1;stroke:#000000;stroke-width:1;stroke-linecap:round;stroke-linejoin:round;stroke-miterlimit:4;stroke-dasharray:none;stroke-opacity:1"
           id="rect833-5-9-6-8-85-7-5-5"
           width="19.815037"
           height="6.1332278"
           x="17.132084"
           y="55.719059"
           ry="0" />
        <circle
           style="opacity:1;fill:none;fill-opacity:1;stroke:#000000;stroke-width:1;stroke-linecap:round;stroke-linejoin:round;stroke-miterlimit:4;stroke-dasharray:none;stroke-opacity:1"
           id="path835-5-73-9-5-0-4-5-2"
           cx="27.039602"
           cy="58.785671"
           r="0.25056517" />
      </g>
    </g>
    <path
       style="fill:#050086;fill-opacity:1;stroke:#2100e9;stroke-width:0.365688;stroke-dasharray:none;stroke-opacity:1;marker-start:url(#Arrow5)"
       d="m 112.53386,174.31728 c -60.359776,42.20788 -60.268176,42.48077 0,0 z"
       id="path17513" />
    <path
       style="fill:#050086;fill-opacity:1;stroke:#26e900;stroke-width:0.365688;stroke-dasharray:none;stroke-opacity:1;marker-start:url(#Arrow5-4)"
       d="m 86.846257,174.23672 c 60.359783,42.20788 60.268183,42.48077 0,0 z"
       id="path17513-3" />
    <path
       style="fill:#ff0000;stroke:#26e900;stroke-width:0.0936916"
       d="m 90.363827,185.51863 v 2.5257 h 1.100842 1.100841 l 3.35262,-2.35397 3.352623,-2.35396 -0.220584,-0.16965 c -0.205451,-0.15801 -0.510926,-0.16979 -4.453461,-0.17173 l -4.232881,-0.002 z"
       id="path22256" />
    <path
       style="fill:#ff0000;stroke:#26e900;stroke-width:0.0936916"
       d="m 96.634219,185.85935 -3.11459,2.18498 h 6.204987 c 3.604324,0 6.167744,-0.0347 6.116124,-0.0828 -0.0489,-0.0455 -1.43956,-1.02878 -3.0904,-2.18498 l -3.00153,-2.10219 z m 3.415051,-1.04682 c 0.53785,0.22473 0.65351,0.93111 0.21711,1.32604 -0.23947,0.21671 -0.861047,0.21285 -1.103826,-0.007 -0.413869,-0.37455 -0.29291,-1.0985 0.220922,-1.32224 0.35783,-0.15581 0.284755,-0.15614 0.665794,0.003 z"
       id="path22258" />
    <path
       style="fill:#ff0000;stroke:#e90000;stroke-width:0.0936916;stroke-opacity:1"
       d="m 100.47799,183.16818 -0.22249,0.17109 0.31603,0.23465 c 0.17382,0.12906 1.67555,1.1877 3.33719,2.35253 l 3.02115,2.11788 h 1.07141 1.07141 v -2.5257 -2.52569 l -4.18611,0.002 c -3.91029,0.002 -4.20076,0.0134 -4.40859,0.17317 z"
       id="path22260" />
    <path
       style="fill:#ff0000;stroke:#e90000;stroke-width:0.0936916;stroke-opacity:1"
       d="m 96.803346,185.8673 -2.902188,2.03672 5.709478,0.0241 c 3.140214,0.0133 5.741104,-0.008 5.779764,-0.0468 0.0584,-0.0589 -5.33905,-3.93549 -5.600807,-4.02274 -0.04623,-0.0154 -1.390045,0.8885 -2.986247,2.00869 z m 3.546334,-0.93253 c 0.34488,0.32804 0.35732,0.86648 0.0276,1.19615 -0.17709,0.1771 -0.32782,0.22961 -0.659062,0.22961 -0.788223,0 -1.167021,-0.74343 -0.68866,-1.35157 0.38209,-0.48575 0.859216,-0.51256 1.320082,-0.0742 z"
       id="path22835" />
    <path
       style="fill:#ff0000;stroke:#e90000;stroke-width:0.0936916;stroke-opacity:1"
       d="m 90.410598,185.515 v 2.43579 h 1.055055 1.055055 l 3.294523,-2.31164 c 2.761789,-1.93783 3.268091,-2.32734 3.131055,-2.40876 -0.104563,-0.0621 -1.671965,-0.10687 -4.349578,-0.12416 l -4.18611,-0.027 z"
       id="path22837" />
    <path
       style="fill:#ff0000;stroke:#e90000;stroke-width:0.0936916;stroke-opacity:1"
       d="m 97.169175,187.92734 c 1.427721,0.0145 3.763995,0.0145 5.191715,0 1.42772,-0.0145 0.25958,-0.0264 -2.595859,-0.0264 -2.855441,0 -4.023574,0.0119 -2.595856,0.0264 z"
       id="path22839" />
    <path
       style="fill:#ff0000;stroke:#e90000;stroke-width:0.0165625;stroke-opacity:1"
       d="m 96.57091,185.85887 -3.172995,2.22585 5.399154,-0.009 c 5.766191,-0.009 6.970571,-0.0235 7.052941,-0.0838 0.0145,-0.0106 0.0222,-0.0304 0.0171,-0.0439 -0.014,-0.0366 -0.78678,-0.5842 -4.09831,-2.90434 -1.10773,-0.7761 -2.016486,-1.4111 -2.019458,-1.4111 -0.003,0 -1.43325,1.00163 -3.178394,2.22585 z m 5.20544,-0.71944 c 3.0066,2.10694 3.9495,2.77383 3.9495,2.79342 0,0.0457 -2.69626,0.0679 -7.574528,0.0625 l -4.490474,-0.005 0.794575,-0.55724 c 0.437018,-0.30648 1.802887,-1.26481 3.035266,-2.12963 1.376452,-0.96592 2.251308,-1.56973 2.268215,-1.56548 0.01513,0.004 0.922986,0.63443 2.017446,1.4014 z"
       id="path22841" />
    <path
       style="fill:#ff0000;stroke:#e90000;stroke-width:0.0165625;stroke-opacity:1"
       d="m 105.89121,187.96387 c 0,0.0185 -0.015,0.0417 -0.0333,0.0515 -0.0183,0.01 -0.18019,0.0238 -0.35967,0.0311 l -0.32633,0.0133 0.45285,0.003 c 0.50318,0.003 0.47345,0.0116 0.32023,-0.0947 -0.0528,-0.0367 -0.0537,-0.0367 -0.0537,-0.004 z"
       id="path22843" />
    <path
       style="fill:#ff0000;stroke:#e90000;stroke-width:0.0165625;stroke-opacity:1"
       d="m 99.300042,183.9606 c -0.244803,0.17107 -1.133425,0.7938 -1.974718,1.38383 -0.841293,0.59003 -2.054241,1.44066 -2.695442,1.89028 -0.641202,0.44963 -1.169541,0.82131 -1.174089,0.82595 -0.01479,0.0151 10.819897,-0.0115 11.492837,-0.0282 0.67782,-0.0168 0.85675,-0.0273 0.89514,-0.0526 0.0307,-0.0202 10e-4,-0.045 -0.38564,-0.32377 -0.57245,-0.41251 -5.692382,-4.00654 -5.707574,-4.00654 -0.003,0 -0.205711,0.13997 -0.450514,0.31104 z m 0.850628,0.0309 c 1.00863,0.69841 4.18159,2.92427 4.99715,3.50554 0.52148,0.37166 0.59205,0.42634 0.574,0.44474 -0.028,0.0286 -0.62838,0.0385 -3.44383,0.0571 -1.98633,0.0131 -3.893787,0.0149 -5.798681,0.005 l -2.838659,-0.014 1.390478,-0.97565 c 3.982362,-2.79429 4.685334,-3.28249 4.726561,-3.28249 0.01019,0 0.187037,0.11668 0.392981,0.25929 z"
       id="path22845" />
    <path
       style="fill:#ff0000;stroke:#e90000;stroke-width:0.0165625;stroke-opacity:1"
       d="m 90.330403,185.51657 v 2.56476 h 1.123606 1.123606 l 3.370177,-2.36607 c 1.853597,-1.30134 3.371639,-2.37104 3.373425,-2.37712 0.0045,-0.0153 -0.266259,-0.21707 -0.339882,-0.25323 -0.08872,-0.0436 -0.318412,-0.0776 -0.663823,-0.0983 -0.200964,-0.0121 -1.623616,-0.0212 -4.146516,-0.0266 l -3.840593,-0.008 z m 6.077148,-2.4714 c 1.943452,0.008 2.320049,0.0224 2.513542,0.0952 0.05525,0.0208 0.272851,0.17497 0.272851,0.19335 0,0.006 -1.491181,1.05871 -3.313734,2.33835 l -3.313734,2.32661 h -1.1015 -1.101501 v -2.48578 -2.48578 l 2.137339,0.005 c 1.175533,0.003 2.933568,0.009 3.906737,0.0128 z"
       id="path22847" />
    <path
       style="fill:#ff0000;stroke:#e90000;stroke-width:0.0165625;stroke-opacity:1"
       d="m 99.690038,183.01291 c 0.03082,0.0227 0.05686,0.0413 0.05788,0.0413 0.0011,0 0.02706,-0.0186 0.05788,-0.0413 l 0.05604,-0.0413 h -0.113914 -0.113911 z"
       id="path22849" />
    <path
       style="fill:#ff0000;stroke:#e90000;stroke-width:0.0625984;stroke-opacity:1"
       d=""
       id="path22851"
       transform="scale(0.26458333)" />
    <path
       style="fill:#ff0000;stroke:#e90000;stroke-width:0.0625984;stroke-opacity:1"
       d=""
       id="path22853"
       transform="scale(0.26458333)" />
    <path
       style="fill:#ff0000;stroke:#e90000;stroke-width:0.0165625;stroke-opacity:1"
       d="m 101.7819,182.97241 c -0.85813,0.0161 -1.14506,0.048 -1.28984,0.14315 -0.12603,0.0829 -0.29222,0.22358 -0.27844,0.23575 0.12744,0.11246 1.21334,0.87992 5.20303,3.67723 l 1.50155,1.05279 h 1.09881 1.09881 v -2.56315 -2.56315 l -3.35277,0.003 c -1.84402,0.002 -3.63554,0.008 -3.98115,0.0146 z m 7.25124,2.54577 v 2.48047 h -1.04663 -1.04663 l -1.28915,-0.90381 c -4.30417,-3.01764 -5.3168,-3.73362 -5.31509,-3.75804 0.002,-0.0278 0.23306,-0.17611 0.31356,-0.20116 0.26406,-0.0822 0.76296,-0.0916 5.0229,-0.0951 l 3.36104,-0.003 z"
       id="path22857" />
    <path
       style="fill:#ff0000;stroke:#e90000;stroke-width:0.0165625;stroke-opacity:1"
       d="m 99.547639,184.60022 c -0.05558,0.0121 -0.133718,0.0384 -0.173633,0.0586 -0.18516,0.0934 -0.401785,0.31909 -0.501258,0.52224 -0.165169,0.33732 -0.108747,0.70756 0.145886,0.95726 0.18416,0.18059 0.396486,0.25566 0.724334,0.25607 0.220347,2.7e-4 0.330192,-0.0186 0.458432,-0.0786 0.10266,-0.0481 0.26956,-0.20684 0.33498,-0.31864 0.16535,-0.28258 0.15757,-0.64944 -0.0196,-0.92558 -0.13327,-0.20769 -0.43949,-0.42205 -0.673839,-0.47172 -0.133347,-0.0282 -0.163711,-0.0282 -0.295275,5.3e-4 z m 0.381725,0.10893 c 0.197116,0.0738 0.439636,0.26633 0.531096,0.42175 0.17883,0.30386 0.14542,0.68328 -0.0831,0.94333 -0.15535,0.17681 -0.3183,0.23966 -0.627247,0.24196 -0.101269,7.9e-4 -0.225057,-0.008 -0.275079,-0.0199 -0.303967,-0.0712 -0.531294,-0.2854 -0.595498,-0.56124 -0.028,-0.12029 -0.01283,-0.33361 0.03168,-0.44531 0.09395,-0.2358 0.288769,-0.44896 0.500938,-0.54809 0.07551,-0.0353 0.159615,-0.0677 0.186899,-0.0721 0.08267,-0.0132 0.239237,0.006 0.330277,0.0396 z"
       id="path22859" />
    <path
       style="fill:#ff0000;stroke:#e90000;stroke-width:0.0165625;stroke-opacity:1"
       d="m 99.529047,184.61658 c -0.142944,0.0402 -0.246777,0.10259 -0.377312,0.22658 -0.235418,0.22363 -0.354666,0.46627 -0.354666,0.72167 0,0.23286 0.08012,0.41819 0.251857,0.5826 0.16787,0.1607 0.378706,0.22986 0.70231,0.23036 0.328444,5.3e-4 0.464114,-0.049 0.644474,-0.23513 0.18032,-0.18611 0.24312,-0.34228 0.24114,-0.59967 -0.002,-0.2618 -0.0983,-0.47431 -0.29489,-0.65061 -0.26205,-0.23505 -0.577468,-0.34207 -0.812913,-0.2758 z m 0.450958,0.1057 c 0.409045,0.19141 0.619645,0.49717 0.598775,0.86933 -0.005,0.0962 -0.0213,0.18371 -0.0445,0.24448 -0.0773,0.20286 -0.2721,0.39669 -0.45461,0.45228 -0.118874,0.0362 -0.421078,0.049 -0.568591,0.0241 -0.329494,-0.0557 -0.590744,-0.30387 -0.64846,-0.61609 -0.0245,-0.13251 0.0039,-0.33882 0.06424,-0.46665 0.107236,-0.22718 0.274889,-0.39533 0.506823,-0.50832 0.12945,-0.0631 0.13554,-0.0643 0.283461,-0.0579 0.126796,0.005 0.169169,0.0149 0.262821,0.0588 z"
       id="path22861" />
    <path
       style="fill:#ff0000;stroke:#e90000;stroke-width:0.0165625;stroke-opacity:1"
       d="m 99.607356,184.687 c -0.08588,0.014 -0.313489,0.13844 -0.403188,0.22042 -0.111538,0.10194 -0.243827,0.29489 -0.284713,0.41526 -0.02069,0.061 -0.03013,0.13912 -0.03066,0.25421 -7.94e-4,0.1595 0.0019,0.17126 0.06139,0.292 0.0731,0.14793 0.191191,0.26536 0.343308,0.34138 0.145582,0.0727 0.25545,0.0904 0.503978,0.0811 0.259729,-0.01 0.361459,-0.0426 0.490059,-0.15808 0.19034,-0.17096 0.27146,-0.36921 0.25952,-0.63423 -0.008,-0.17209 -0.0473,-0.28177 -0.1544,-0.42759 -0.10166,-0.1385 -0.36789,-0.31969 -0.529255,-0.36021 -0.08584,-0.0216 -0.203991,-0.0327 -0.256037,-0.0242 z m 0.318645,0.116 c 0.194239,0.077 0.325759,0.16484 0.406219,0.27145 0.21001,0.27828 0.21423,0.64546 0.0106,0.92207 -0.0871,0.11832 -0.1641,0.17345 -0.30205,0.2163 -0.31242,0.097 -0.688956,0.0389 -0.872487,-0.13467 -0.298887,-0.28268 -0.281401,-0.81324 0.03646,-1.10624 0.07286,-0.0671 0.292729,-0.1824 0.427421,-0.22402 0.07908,-0.0245 0.105611,-0.0195 0.293841,0.0551 z"
       id="path22863" />
    <path
       style="fill:#ff0000;stroke:#e90000;stroke-width:0.0165625;stroke-opacity:1"
       d="m 101.54212,182.98912 c -0.59961,0.016 -0.86982,0.046 -1.00045,0.11126 -0.0707,0.0353 -0.30593,0.21934 -0.30593,0.23937 0,0.0221 -0.0279,0.001 0.65319,0.48875 0.64206,0.45954 1.55002,1.09912 4.27468,3.01115 l 1.74459,1.22428 1.09554,5.3e-4 1.09554,5.3e-4 v -2.54662 -2.54661 l -3.5512,0.003 c -1.95317,0.002 -3.75585,0.008 -4.00596,0.0148 z m 7.49928,2.52906 v 2.48874 l -1.04682,0.004 -1.04683,0.004 -1.85532,-1.30125 c -4.0873,-2.86667 -4.75747,-3.34252 -4.75747,-3.37809 0,-0.0473 0.23644,-0.18855 0.37345,-0.22313 0.22738,-0.0574 0.53251,-0.0634 3.79374,-0.0744 1.76899,-0.006 3.51399,-0.0104 3.8778,-0.01 l 0.66145,7.9e-4 z"
       id="path22865" />
    <path
       style="fill:#ff0000;stroke:#e90000;stroke-width:0.0625984;stroke-opacity:1"
       d=""
       id="path22867"
       transform="scale(0.26458333)" />
    <path
       style="fill:#ff0000;stroke:#e90000;stroke-width:0.0625984;stroke-opacity:1"
       d=""
       id="path22869"
       transform="scale(0.26458333)" />
    <path
       style="fill:#ff0000;stroke:#e90000;stroke-width:0.125197;stroke-opacity:1"
       d=""
       id="path22871"
       transform="scale(0.26458333)" />
    <path
       style="fill:#ff0000;stroke:#e90000;stroke-width:0.00207031;stroke-opacity:1"
       d="m 98.113907,182.97076 c 0.0028,2.6e-4 0.04377,0.002 0.09095,0.003 0.119253,0.003 0.333254,0.0162 0.440283,0.027 0.137618,0.0139 0.239048,0.0331 0.306731,0.0581 0.009,0.003 0.01659,0.006 0.01696,0.005 2.65e-4,-2.7e-4 -0.02946,-0.0218 -0.06626,-0.0476 l -0.06691,-0.0469 -0.363458,2.6e-4 c -0.199904,1.7e-4 -0.361133,5.3e-4 -0.358291,0.001 z"
       id="path22873" />
    <path
       style="fill:#ff0000;stroke:#e90000;stroke-width:0.00207031;stroke-opacity:1"
       d="m 97.962494,182.97087 c 0.0013,5.3e-4 0.0038,5.3e-4 0.0052,0 0.0013,-5.3e-4 2.57e-4,-0.001 -0.0026,-0.001 -0.0028,0 -0.004,5.3e-4 -0.0026,0.001 z"
       id="path22875" />
    <path
       style="fill:#ff0000;stroke:#e90000;stroke-width:0.00103516;stroke-opacity:1"
       d="m 96.741897,182.95642 v 0.003 l 0.133067,7.9e-4 c 0.269274,0.001 0.722868,0.005 0.853437,0.006 0.184073,0.002 0.230838,0.002 0.234093,0.002 0.0027,-8e-4 5.29e-4,-0.001 -0.0093,-0.001 -0.0071,-7e-5 -0.03152,-5.3e-4 -0.05426,-0.001 -0.0854,-0.002 -0.269693,-0.005 -0.422714,-0.007 -0.138253,-0.002 -0.64751,-0.006 -0.725279,-0.006 h -0.009 z"
       id="path22877" />
    <path
       style="fill:#ff0000;stroke:#e90000;stroke-width:0.00103516;stroke-opacity:1"
       d="m 96.808302,182.96091 -0.06641,2.7e-4 v 0.008 0.008 l 0.104645,7.9e-4 c 0.05755,2.6e-4 0.176501,0.001 0.264324,0.002 0.64025,0.004 1.0481,0.009 1.177706,0.0145 0.02814,0.001 0.08886,0.005 0.140044,0.009 0.283466,0.021 0.473972,0.0524 0.550354,0.0907 0.03079,0.0154 0.105333,0.0655 0.185505,0.12474 0.01281,0.009 0.02387,0.0175 0.02455,0.018 0.0011,5.3e-4 0.0013,-0.001 0.0013,-0.009 v -0.01 l -0.02455,-0.018 c -0.08069,-0.0592 -0.148336,-0.1044 -0.180113,-0.1204 -0.07599,-0.0383 -0.263662,-0.0699 -0.53948,-0.0909 -0.01905,-0.001 -0.043,-0.003 -0.05323,-0.004 -0.0173,-0.001 -0.01765,-0.001 -0.0052,-0.001 0.0312,0.001 0.136255,0.008 0.198956,0.0134 0.136046,0.0112 0.25205,0.0291 0.324059,0.0501 0.006,0.002 0.01148,0.003 0.01212,0.003 5.29e-4,-2.1e-4 -0.0049,-0.002 -0.01222,-0.004 -0.07617,-0.0216 -0.18491,-0.0385 -0.320839,-0.0498 -0.121505,-0.0102 -0.32679,-0.0216 -0.399976,-0.0224 -0.0092,-9e-5 -0.01093,-2.6e-4 -0.0078,-10e-4 0.0024,-5.3e-4 0.150598,-7.9e-4 0.32961,-7.9e-4 0.179011,-3e-5 0.325183,-2.6e-4 0.324826,-7.9e-4 -7.94e-4,-8e-4 -0.701979,-2.7e-4 -0.713865,5.3e-4 l -0.0098,7.9e-4 0.0088,2.6e-4 c 0.04247,10e-4 0.04387,0.002 0.0047,10e-4 -0.02387,-2.6e-4 -0.06875,-8e-4 -0.09973,-10e-4 -0.03098,-5.3e-4 -0.0847,-0.001 -0.119372,-0.002 -0.03468,-2.7e-4 -0.06909,-8e-4 -0.07648,-0.001 -0.0074,-2.7e-4 -0.03437,-8e-4 -0.05995,-8e-4 -0.02559,-1.4e-4 -0.07116,-5.3e-4 -0.101285,-7.9e-4 -0.03013,-2.6e-4 -0.08175,-7.9e-4 -0.11472,-0.001 -0.03297,-2.6e-4 -0.08948,-7.9e-4 -0.125574,-0.001 -0.06288,-5.3e-4 -0.119335,-0.001 -0.288356,-0.002 -0.219359,-10e-4 -0.252236,-0.002 -0.258898,-0.002 -0.004,-2.4e-4 -0.03712,-2.6e-4 -0.07364,-1e-4 z m 1.389062,0.0135 c -0.0047,1.9e-4 -0.01236,1.9e-4 -0.01706,0 -0.0047,-1.9e-4 -7.94e-4,-2.7e-4 0.0085,-2.7e-4 0.0094,0 0.01323,1.6e-4 0.0085,2.7e-4 z m 0.03514,0.001 c -0.003,2.1e-4 -0.0079,2.1e-4 -0.01085,0 -0.003,-2.1e-4 -5.29e-4,-2.7e-4 0.0054,-2.7e-4 0.006,0 0.0084,1.7e-4 0.0054,2.7e-4 z m 0.02946,10e-4 c -0.0016,2.3e-4 -0.0041,2.3e-4 -0.0057,0 -0.0016,-2.4e-4 -2.64e-4,-5.3e-4 0.0028,-5.3e-4 0.0031,0 0.0044,1.9e-4 0.0028,5.3e-4 z m 0.02635,0.001 c -7.93e-4,2.7e-4 -0.0019,2.7e-4 -0.0026,0 -7.94e-4,-2.6e-4 -1.3e-4,-5.3e-4 0.0013,-5.3e-4 0.0013,0 0.0021,2.4e-4 0.0013,5.3e-4 z m 0.02273,0.001 c -7.94e-4,2.7e-4 -0.0019,2.7e-4 -0.0026,0 -7.94e-4,-2.6e-4 -1.29e-4,-5.3e-4 0.0013,-5.3e-4 0.0013,0 0.0021,2.4e-4 0.0013,5.3e-4 z m 0.01966,0.001 c -7.94e-4,2.6e-4 -0.0021,2.6e-4 -0.0031,4e-5 -0.0011,-2.6e-4 -5.29e-4,-5.3e-4 0.0013,-5.3e-4 0.0016,-2e-5 0.0026,1.9e-4 0.0019,5.3e-4 z m 0.02016,0.001 c -0.0016,2.3e-4 -0.0043,2.4e-4 -0.0062,1e-5 -0.0019,-2.3e-4 -5.3e-4,-5.3e-4 0.0028,-5.3e-4 0.0034,-1e-5 0.0049,1.8e-4 0.0034,5.3e-4 z m 0.01752,0.001 c -0.0021,2.2e-4 -0.0054,2.2e-4 -0.0072,-1e-5 -0.0019,-2.3e-4 -8e-5,-5.3e-4 0.0039,-5.3e-4 0.004,0 0.0055,1.9e-4 0.0033,5.3e-4 z"
       id="path22879" />
    <path
       style="fill:#ff0000;stroke:#e90000;stroke-width:0.00103516;stroke-opacity:1"
       d="m 98.066623,182.97233 c 0.0035,2e-4 0.0094,2e-4 0.01291,0 0.0035,-2e-4 5.29e-4,-2.6e-4 -0.0065,-2.6e-4 -0.0071,0 -0.01,1.6e-4 -0.0065,2.6e-4 z"
       id="path22881" />
    <path
       style="fill:#ff0000;stroke:#e90000;stroke-width:0.00103516;stroke-opacity:1"
       d="m 98.082385,182.9702 c 0.01368,8e-4 0.02997,8e-4 0.02997,8e-5 -2e-6,-5.3e-4 -0.008,-8e-4 -0.01783,-5.3e-4 -0.0098,1e-4 -0.01527,2.6e-4 -0.01214,5.3e-4 z"
       id="path22883" />
    <path
       style="fill:#ff0000;stroke:#e90000;stroke-width:0.00146393;stroke-opacity:1"
       d="m 94.150909,182.95066 c 0.175249,5.3e-4 0.592254,0.002 0.926674,0.003 0.566658,0.002 0.966555,0.003 1.459804,0.005 0.202322,0.001 0.202801,0.001 0.202801,-0.002 0,-0.003 -0.0013,-0.003 -0.09537,-0.004 -0.178948,-0.002 -1.285134,-0.004 -2.049571,-0.003 -0.650634,1.9e-4 -0.716055,2.7e-4 -0.444336,0.001 z"
       id="path22885" />
    <path
       style="fill:#ff0000;stroke:#e90000;stroke-width:0.00207031;stroke-opacity:1"
       d="m 90.323169,184.14741 v 1.20334 h 0.0072 0.0072 v -1.19608 -1.19608 l 0.280604,0.001 c 0.154331,8e-4 0.637093,0.002 1.072803,0.003 l 0.7922,0.001 v -0.007 -0.007 l -0.532784,-0.001 c -0.293031,-7.9e-4 -0.779049,-0.002 -1.080037,-0.003 l -0.547253,-0.001 z"
       id="path22887" />
    <path
       style="fill:#ff0000;stroke:#e90000;stroke-width:0.00207031;stroke-opacity:1"
       d="m 90.325235,184.14667 v 1.20201 h 0.0052 0.0052 v -1.19613 -1.19613 l 0.184486,0.001 c 0.101465,8e-4 0.570971,0.002 1.043347,0.002 0.472374,5.3e-4 0.872117,0.002 0.888318,0.002 l 0.02946,0.001 v -0.006 -0.006 l -0.388091,-0.001 c -0.21345,-8e-4 -0.693653,-0.002 -1.067118,-0.002 -0.373467,-5.3e-4 -0.683913,-0.002 -0.689882,-0.002 l -0.01085,-0.001 z"
       id="path22889" />
    <path
       style="fill:#ff0000;stroke:#e90000;stroke-width:0.00207031;stroke-opacity:1"
       d="m 90.316967,184.14876 c 0,0.79995 7.94e-4,1.20199 0.0021,1.20199 0.0013,0 0.0021,-0.40204 0.0021,-1.20199 0,-0.79996 -7.93e-4,-1.202 -0.0021,-1.202 -0.0013,0 -0.0021,0.40204 -0.0021,1.202 z"
       id="path22891" />
    <path
       style="fill:#ff0000;stroke:#e90000;stroke-width:0.00414062;stroke-opacity:1"
       d="m 101.6818,188.08026 c 0.0132,7.9e-4 0.0336,7.9e-4 0.0455,-2e-5 0.0119,-7.9e-4 0.001,-0.002 -0.0239,-0.002 -0.025,1e-5 -0.0347,7.9e-4 -0.0216,0.002 z"
       id="path22893" />
    <path
       style="fill:#ff0000;stroke:#e90000;stroke-width:0.00414062;stroke-opacity:1"
       d="m 101.61563,188.08851 c 0.0109,7.9e-4 0.0276,7.9e-4 0.0372,-2e-5 0.01,-8e-4 8e-4,-0.002 -0.0198,-0.002 -0.0204,1e-5 -0.0283,7.9e-4 -0.0174,0.002 z"
       id="path22895" />
    <path
       style="fill:#ff0000;stroke:#e90000;stroke-width:0.00414062;stroke-opacity:1"
       d="m 101.59085,188.08026 c 0.0131,7.9e-4 0.0336,7.9e-4 0.0455,-2e-5 0.0119,-7.9e-4 0.001,-0.002 -0.0239,-0.002 -0.025,1e-5 -0.0347,7.9e-4 -0.0216,0.002 z"
       id="path22897" />
    <path
       style="fill:#ff0000;stroke:#e90000;stroke-width:0.0156496;stroke-opacity:1"
       d=""
       id="path22899"
       transform="scale(0.26458333)" />
    <path
       style="fill:#ff0000;stroke:#e90000;stroke-width:0.00414062;stroke-opacity:1"
       d="m 101.7726,188.08025 c 0.0131,8e-4 0.0345,8e-4 0.0475,0 0.0131,-7.9e-4 0.002,-0.002 -0.0238,-0.002 -0.0261,0 -0.0369,7.9e-4 -0.0238,0.002 z"
       id="path22903" />
    <path
       style="fill:#ff0000;stroke:#e90000;stroke-width:0.00103516;stroke-opacity:1"
       d="m 102.80716,188.07417 c -0.083,5.3e-4 -0.28112,0.001 -0.44028,0.002 -0.51604,0.002 -0.53874,0.002 -0.53928,0.004 -5.3e-4,0.002 -0.008,0.003 -0.0312,0.003 -0.0234,0 -0.0306,-8e-4 -0.0313,-0.003 -5.3e-4,-0.002 -0.002,-0.002 -0.0152,-0.002 -0.0136,0 -0.0148,1.5e-4 -0.0153,0.002 -5.3e-4,0.002 -0.002,0.002 -0.01,0.003 -0.0139,0.001 -0.0486,1.2e-4 -0.0506,-0.002 -7.9e-4,-7.9e-4 -0.001,-0.002 -0.001,-0.002 2.7e-4,-5.3e-4 -0.006,-7.9e-4 -0.0144,-7.9e-4 -0.0138,0 -0.015,1.4e-4 -0.0155,0.002 -5.3e-4,0.002 -0.002,0.002 -0.01,0.003 -0.005,5.3e-4 -0.018,5.3e-4 -0.029,2.7e-4 -0.0176,-5.3e-4 -0.0203,-8e-4 -0.0221,-0.002 -0.002,-0.002 -0.0112,-0.002 -0.28296,-0.001 -0.15448,2.7e-4 -0.37144,0.001 -0.48214,0.001 l -0.20128,7.9e-4 v 0.004 0.004 l 0.13203,1e-5 c 0.29127,3e-5 0.85962,-0.002 0.86037,-0.003 0.001,-0.002 0.0445,-0.002 0.0481,-5.3e-4 0.002,0.001 0.0322,0.001 0.17334,5.3e-4 0.34167,-0.002 0.68186,-0.003 1.13559,-0.007 l 0.099,-8e-4 v -0.003 -0.003 l -0.0535,1.7e-4 c -0.0294,10e-5 -0.12139,5.3e-4 -0.20438,10e-4 z"
       id="path22905" />
    <path
       style="fill:#ff0000;stroke:#e90000;stroke-width:0.00103516;stroke-opacity:1"
       d="m 100.25951,188.0655 c -0.0227,1.1e-4 -0.346902,7.9e-4 -0.720367,0.001 -0.373467,5.3e-4 -0.815416,0.001 -0.982112,0.002 l -0.30308,8e-4 v 0.008 0.008 l 0.450358,-7.9e-4 c 0.710612,-0.001 1.463171,-0.003 1.742011,-0.003 l 0.25606,-7.9e-4 v -0.008 -0.008 l -0.20076,2.5e-4 c -0.11042,1.3e-4 -0.21937,2.6e-4 -0.24211,5.3e-4 z"
       id="path22907" />
    <path
       style="fill:#ff0000;stroke:#e90000;stroke-width:0.00103516;stroke-opacity:1"
       d="m 99.315684,188.08417 c 0.0039,2e-4 0.0099,1.9e-4 0.01344,-1e-5 0.0035,-2e-4 2.65e-4,-2.6e-4 -0.007,-2.6e-4 -0.0074,0 -0.01027,1.7e-4 -0.0064,2.6e-4 z"
       id="path22909" />
    <path
       style="fill:#ff0000;stroke:#e90000;stroke-width:0.00103516;stroke-opacity:1"
       d="m 100.33082,188.08209 c -0.993593,0.002 -1.651393,0.003 -1.895743,0.003 l -0.181126,3e-5 v 0.003 0.003 h 1.097865 c 0.603826,0 1.135194,-2.7e-4 1.180804,-8e-4 l 0.0829,-7.9e-4 v -0.004 -0.004 l -0.0855,2.5e-4 c -0.047,1.4e-4 -0.13669,2.7e-4 -0.19922,5.3e-4 z"
       id="path22911" />
    <path
       style="fill:#ff0000;stroke:#e90000;stroke-width:0.00207031;stroke-opacity:1"
       d="m 105.06955,188.05255 c -0.35893,0.008 -1.08339,0.0196 -1.49965,0.0232 -0.0307,2.6e-4 0.50997,7.9e-4 1.20148,0.001 l 1.25729,5.3e-4 v -0.005 c 0,-0.005 -5.3e-4,-0.005 -0.007,-0.004 -0.0296,0.006 -0.20041,0.006 -0.70078,0.002 l -0.15038,-0.001 v -0.009 -0.009 l -0.017,2.6e-4 c -0.009,1.8e-4 -0.0473,0.001 -0.0842,0.002 z"
       id="path22913" />
    <path
       style="fill:#ff0000;stroke:#e90000;stroke-width:0.00207031;stroke-opacity:1"
       d="m 103.52813,188.07667 c 0.008,5.2e-4 0.0198,5.2e-4 0.0269,-1e-5 0.007,-5.3e-4 8e-4,-7.9e-4 -0.014,-7.9e-4 -0.0148,0 -0.0206,2.6e-4 -0.0128,7.9e-4 z"
       id="path22915" />
    <path
       style="fill:#ff0000;stroke:#e90000;stroke-width:0.00207031;stroke-opacity:1"
       d="m 103.53748,188.07448 c 0.002,5.3e-4 0.003,5.3e-4 0.004,-1.7e-4 7.9e-4,-7.9e-4 -5.3e-4,-0.001 -0.003,-0.001 -0.002,1e-4 -0.003,5.3e-4 -0.001,0.001 z"
       id="path22917" />
    <path
       style="fill:#ff0000;stroke:#e90000;stroke-width:0.00207031;stroke-opacity:1"
       d="m 103.58851,188.07113 c -0.0523,10e-4 -0.0814,0.005 -0.0429,0.006 0.0116,1.3e-4 0.0212,-5.2e-4 0.0212,-0.002 0,-0.001 0.0754,-0.003 0.16898,-0.004 l 0.16899,-0.002 -0.13436,6e-5 c -0.0739,4e-5 -0.15576,5.3e-4 -0.18191,0.001 z m -0.0336,0.003 c -0.003,5.3e-4 -0.007,5.3e-4 -0.009,0 -0.003,-5.2e-4 -5.3e-4,-7.9e-4 0.005,-7.9e-4 0.005,0 0.007,5.3e-4 0.005,7.9e-4 z"
       id="path22919" />
    <path
       style="fill:#ff0000;stroke:#e90000;stroke-width:0.00103516;stroke-opacity:1"
       d="m 103.43168,188.07586 c 0.001,2.5e-4 0.003,2.4e-4 0.004,-2e-5 10e-4,-2.6e-4 -6e-5,-5.3e-4 -0.002,-5.3e-4 -0.002,1e-5 -0.003,2.3e-4 -0.002,5.3e-4 z"
       id="path22921" />
    <path
       style="fill:#ff0000;stroke:#e90000;stroke-width:0.00103516;stroke-opacity:1"
       d="m 103.36268,188.07112 c -0.0753,5.3e-4 -0.17287,0.001 -0.21678,0.002 l -0.0798,8e-4 v 0.003 0.003 l 0.0137,-5.3e-4 c 0.008,-2.6e-4 0.0855,-10e-4 0.17338,-0.002 0.0878,-5.3e-4 0.16316,-0.001 0.16743,-0.002 0.004,-2.7e-4 0.0287,-5.3e-4 0.0544,-5.3e-4 0.0383,1.1e-4 0.0481,-1.5e-4 0.0548,-0.001 0.004,-8e-4 0.0142,-0.002 0.0215,-0.002 0.0171,-10e-4 -0.003,-10e-4 -0.18862,-3e-5 z"
       id="path22923" />
    <path
       style="fill:#ff0000;stroke:#e90000;stroke-width:0.0039124;stroke-opacity:1"
       d=""
       id="path22925"
       transform="scale(0.26458333)" />
    <path
       style="fill:#ff0000;stroke:#e90000;stroke-width:0.00103516;stroke-opacity:1"
       d="m 103.50972,188.07481 c 0.001,2.7e-4 0.002,2.5e-4 0.003,-3e-5 7.9e-4,-2.7e-4 -1.3e-4,-5.3e-4 -0.002,-5.3e-4 -0.002,2e-5 -0.002,2.5e-4 -0.001,5.3e-4 z"
       id="path22927" />
    <path
       style="fill:#ff0000;stroke:#e90000;stroke-width:0.00103516;stroke-opacity:1"
       d="m 103.51696,188.07481 c 0.001,2.7e-4 0.002,2.5e-4 0.003,-3e-5 7.9e-4,-2.7e-4 -1.2e-4,-5.3e-4 -0.002,-5.3e-4 -0.002,2e-5 -0.002,2.5e-4 -0.001,5.3e-4 z"
       id="path22929" />
    <path
       style="fill:#ff0000;stroke:#e90000;stroke-width:0.00103516;stroke-opacity:1"
       d="m 104.4453,188.02975 c -0.11684,0.001 -0.57972,0.004 -0.86144,0.005 -0.29405,0.001 -1.42077,0.006 -1.46891,0.006 h -0.0111 v 0.008 0.008 l 0.21368,-7.9e-4 c 0.32834,-0.001 1.00927,-0.004 1.36193,-0.006 0.10687,-5.2e-4 0.25151,-0.001 0.32143,-0.001 0.0699,-2.1e-4 0.11945,-2.4e-4 0.11007,-6e-5 -0.0218,5.3e-4 -0.37441,0.003 -0.57464,0.005 -0.33281,0.002 -0.84448,0.005 -1.12861,0.006 -0.0998,2.6e-4 -0.20894,7.9e-4 -0.24262,0.001 l -0.0612,5.2e-4 v 0.008 0.008 l 0.0545,2.6e-4 c 0.03,2.1e-4 0.0643,2e-5 0.0762,-5.3e-4 0.0119,-5.3e-4 0.0717,-7.9e-4 0.13281,-7.9e-4 0.0611,-5e-5 0.16622,-2.7e-4 0.23358,-5.3e-4 0.0674,-2.7e-4 0.16921,-8e-4 0.22634,-8e-4 0.0571,-2.3e-4 0.14131,-7.9e-4 0.18707,-0.001 0.0458,-2.7e-4 0.13134,-8e-4 0.19017,-0.001 0.0588,-2.7e-4 0.12836,-8e-4 0.15451,-10e-4 0.0261,-2.6e-4 0.12312,-0.001 0.21549,-0.002 0.1818,-0.001 0.47612,-0.003 0.63562,-0.005 0.24244,-0.002 0.30354,-0.003 0.32221,-0.004 l 0.0199,-5.3e-4 v -0.0154 -0.0154 l -0.006,1.7e-4 c -0.004,1e-4 -0.0488,5.3e-4 -0.10051,0.001 z m -0.28499,0.0182 c -10e-4,2.6e-4 -0.003,2.6e-4 -0.004,0 -0.001,-2.6e-4 -1.8e-4,-5.3e-4 0.002,-5.3e-4 0.002,0 0.003,2.1e-4 0.002,5.3e-4 z m 0.014,1e-5 c -0.001,2.5e-4 -0.004,2.5e-4 -0.005,2e-5 -0.002,-2.4e-4 -5.3e-4,-5.3e-4 0.002,-5.3e-4 0.003,-1e-5 0.004,1.9e-4 0.003,5.3e-4 z m 0.0191,4e-5 c -0.003,2.1e-4 -0.007,2.1e-4 -0.0104,0 -0.003,-2.1e-4 -7.9e-4,-2.6e-4 0.005,-2.6e-4 0.006,-1e-5 0.008,1.7e-4 0.005,2.6e-4 z m 0.0165,-2e-5 c -0.002,2.3e-4 -0.004,2.3e-4 -0.006,0 -0.002,-2.4e-4 -2.7e-4,-5.3e-4 0.003,-5.3e-4 0.003,0 0.004,1.9e-4 0.003,5.3e-4 z"
       id="path22931" />
    <path
       style="fill:#ff0000;stroke:#e90000;stroke-width:0.0039124;stroke-opacity:1"
       d=""
       id="path22933"
       transform="scale(0.26458333)" />
    <path
       style="fill:#ff0000;stroke:#e90000;stroke-width:0.00103516;stroke-opacity:1"
       d="m 104.25866,188.06415 c -2.3e-4,2.1e-4 -0.0741,7.9e-4 -0.16424,0.002 -0.16568,0.001 -0.18914,0.002 -0.18914,0.003 0,0.002 0.087,8e-4 0.36329,-0.004 0.0818,-10e-4 0.0827,-10e-4 0.0371,-0.002 -0.0256,-8e-5 -0.0468,3e-5 -0.047,2.4e-4 z"
       id="path22935" />
    <path
       style="fill:#ff0000;stroke:#e90000;stroke-width:0.00103516;stroke-opacity:1"
       d="m 103.86059,188.0666 c 0.0121,1.7e-4 0.0318,1.7e-4 0.0439,0 0.0121,-1.6e-4 0.002,-2.6e-4 -0.022,-2.6e-4 -0.0242,0 -0.034,1.3e-4 -0.022,2.6e-4 z"
       id="path22937" />
    <path
       style="fill:#ff0000;stroke:#e90000;stroke-width:0.00103516;stroke-opacity:1"
       d="m 103.89004,188.06866 c 0.003,2.1e-4 0.007,2.1e-4 0.01,0 0.003,-2.2e-4 5.3e-4,-2.7e-4 -0.005,-2.7e-4 -0.005,0 -0.008,1.8e-4 -0.005,2.7e-4 z"
       id="path22939" />
    <path
       style="fill:#ff0000;stroke:#e90000;stroke-width:0.00103516;stroke-opacity:1"
       d="m 103.81769,188.06867 c 0.0124,1.7e-4 0.0326,1.7e-4 0.045,0 0.0124,-1.6e-4 0.002,-2.6e-4 -0.0225,-2.6e-4 -0.0247,0 -0.0348,1.3e-4 -0.0225,2.6e-4 z"
       id="path22941" />
    <path
       style="fill:#ff0000;stroke:#e90000;stroke-width:0.00103516;stroke-opacity:1"
       d="m 104.49905,188.06278 c -0.14309,0.002 -0.20285,0.003 -0.24566,0.003 -0.0265,7e-5 -0.0475,5.3e-4 -0.0465,7.9e-4 0.001,5.3e-4 -0.0142,5.3e-4 -0.0336,5.3e-4 -0.0195,-1.2e-4 -0.0354,1.6e-4 -0.0354,5.3e-4 0,8e-4 -0.0231,0.001 -0.11385,0.001 -0.022,3e-5 -0.0394,5.3e-4 -0.0388,7.9e-4 5.3e-4,5.3e-4 -0.0104,8e-4 -0.0246,8e-4 -0.0142,2e-5 -0.077,7.9e-4 -0.13953,0.002 -0.11326,0.002 -0.17901,0.002 -0.17819,0.001 2.3e-4,-2.2e-4 0.053,-0.001 0.11722,-0.002 0.11602,-0.001 0.14489,-0.002 0.14366,-0.003 -0.001,-0.001 -0.14398,-2.7e-4 -0.24805,0.001 -0.05,8e-4 -0.0958,0.001 -0.1018,0.001 -0.007,-8e-5 -0.0101,2e-4 -0.009,8e-4 0.002,7.9e-4 8e-4,7.9e-4 -0.003,7.9e-4 -0.003,0 -0.006,2e-4 -0.008,5.3e-4 -0.006,0.001 -0.009,0.002 -0.009,0.003 0,7.9e-4 0.0355,7.9e-4 0.0429,-9e-5 5.2e-4,-5e-5 0.22241,7e-5 0.49299,2.7e-4 0.36058,2.6e-4 0.42282,1.8e-4 0.23306,-2.7e-4 -0.14239,-5.2e-4 -0.32099,-7.9e-4 -0.39688,-0.001 -0.12796,-2.7e-4 -0.13347,-2.7e-4 -0.076,-0.001 0.22905,-0.003 0.44213,-0.006 0.60565,-0.009 0.0517,-7.9e-4 0.10114,-0.002 0.10981,-0.002 0.01,0 0.0158,-2.6e-4 0.0158,-0.001 0,-5.3e-4 -0.002,-0.001 -0.005,-7.9e-4 -0.003,9e-5 -0.0245,5.3e-4 -0.0478,7.9e-4 z m -0.86248,0.009 c -0.0365,8e-4 -0.0679,0.002 -0.0775,0.004 -0.004,5.3e-4 -0.005,5.3e-4 -0.003,-0.001 0.002,-0.002 0.005,-0.002 0.0289,-0.003 0.0149,-5.3e-4 0.041,-8e-4 0.0581,-8e-4 h 0.031 z m -0.0915,0.003 c 0.001,5.3e-4 -10e-6,7.9e-4 -0.005,7.9e-4 -0.005,-2e-5 -0.006,-2.6e-4 -0.004,-7.9e-4 0.003,-0.001 0.006,-0.001 0.009,0 z m 0.0762,-2.7e-4 c -0.005,1.9e-4 -0.0123,1.9e-4 -0.0171,0 -0.005,-1.9e-4 -8e-4,-2.6e-4 0.009,-2.6e-4 0.009,0 0.0132,1.5e-4 0.009,2.6e-4 z"
       id="path22943" />
    <path
       style="fill:#ff0000;stroke:#e90000;stroke-width:0.00414062;stroke-opacity:1"
       d="m 100.5885,183.02028 c -0.0706,0.0496 -0.0813,0.0579 -0.0685,0.0534 0.004,-0.001 0.007,-0.001 0.007,0.001 0,0.002 0.0155,-0.003 0.0345,-0.0105 0.10586,-0.0432 0.29751,-0.07 0.60212,-0.0844 0.0512,-0.002 0.10232,-0.005 0.11369,-0.006 0.0114,-7.9e-4 -0.12351,-0.002 -0.29973,-0.002 l -0.32039,-5.3e-4 z"
       id="path22945" />
    <path
       style="fill:#ff0000;stroke:#e90000;stroke-width:0.00414062;stroke-opacity:1"
       d="m 102.63146,182.95534 c -0.64485,0.004 -1.01697,0.0105 -1.35392,0.0231 -0.0432,0.002 -0.095,0.003 -0.11509,0.004 -0.0201,5.3e-4 -0.0415,0.002 -0.0475,0.003 -0.006,10e-4 -0.0358,0.003 -0.0661,0.004 -0.0303,0.001 -0.0568,0.003 -0.059,0.005 -0.002,0.001 -0.0136,0.002 -0.0255,0.002 -0.0119,-5.3e-4 -0.0244,1.7e-4 -0.0278,0.001 -0.003,10e-4 -0.0369,0.005 -0.0744,0.009 -0.12625,0.0128 -0.21803,0.0316 -0.28732,0.0588 -0.0205,0.008 -0.0415,0.0149 -0.0466,0.0152 -0.005,2.6e-4 -0.047,0.0293 -0.0932,0.0647 -0.19217,0.14702 -0.25058,0.19236 -0.25072,0.19459 -2e-4,0.003 0.35522,0.26628 0.50009,0.36993 0.35968,0.25733 1.37813,0.9752 2.64583,1.86497 1.11785,0.78458 0.99483,0.70003 1.01862,0.70003 0.0124,0 0.0191,-0.002 0.0168,-0.004 -0.002,-0.002 -0.25414,-0.17935 -0.55997,-0.39401 -1.48951,-1.04552 -2.30113,-1.61807 -2.89388,-2.04148 -0.50885,-0.36349 -0.64115,-0.45978 -0.6612,-0.48122 l -0.0101,-0.0108 0.0163,-0.017 c 0.0407,-0.0424 0.18642,-0.1561 0.25655,-0.20013 0.0195,-0.0122 0.0503,-0.028 0.0685,-0.035 0.13947,-0.0538 0.44327,-0.0829 0.99142,-0.095 0.19189,-0.004 1.94399,-0.0112 3.81682,-0.0151 1.00013,-0.002 1.18959,-0.003 1.18959,-0.008 0,-0.005 -0.0247,-0.006 -0.13746,-0.007 l -0.13745,-0.001 0.13745,-0.001 c 0.119,-7.9e-4 0.13746,-0.002 0.13746,-0.007 0,-0.006 -0.19548,-0.006 -1.73736,-0.006 -0.95555,2.6e-4 -1.95037,0.002 -2.21071,0.004 z m -2.40192,0.39061 c 0,0.004 -0.002,0.005 -0.004,0.004 -0.002,-0.001 -0.003,-0.004 -0.002,-0.006 0.004,-0.006 0.006,-0.005 0.006,0.003 z"
       id="path22947" />
    <path
       style="fill:#ff0000;stroke:#e90000;stroke-width:0.00414062;stroke-opacity:1"
       d="m 100.31746,183.21049 c -0.096,0.0675 -0.17462,0.12408 -0.17466,0.12563 -10e-5,0.004 0.38443,0.27344 0.38673,0.27114 0.001,-0.001 -0.0782,-0.0612 -0.17595,-0.13372 -0.0978,-0.0725 -0.17773,-0.13283 -0.17766,-0.134 7e-5,-0.001 0.0675,-0.0537 0.14986,-0.11679 0.16862,-0.12916 0.17617,-0.13514 0.17041,-0.1351 -0.002,1e-5 -0.0827,0.0553 -0.17873,0.12284 z"
       id="path22949" />
    <path
       style="fill:#ff0000;stroke:#e90000;stroke-width:0.00414062;stroke-opacity:1"
       d="m 99.69624,183.6635 c -0.0507,0.0339 -0.934588,0.65246 -2.247927,1.5732 -0.657635,0.46105 -0.66249,0.46456 -0.66249,0.47839 0,0.008 0.0011,0.0139 0.0021,0.0139 0.0013,0 0.06399,-0.0434 0.139528,-0.0965 0.14461,-0.10162 0.871738,-0.61126 1.830247,-1.28283 0.584824,-0.40974 0.732369,-0.51276 0.898358,-0.6272 l 0.09427,-0.065 0.07936,0.0547 c 0.326464,0.22513 1.818654,1.26998 3.224984,2.25816 l 0.43364,0.30471 0.0213,-10e-4 0.0213,-0.001 -0.18831,-0.13213 c -2.04851,-1.43729 -3.5852,-2.51171 -3.592252,-2.5116 -0.0013,2e-5 -0.02582,0.0156 -0.05425,0.0346 z"
       id="path22951" />
    <path
       style="fill:#ff0000;stroke:#e90000;stroke-width:0.00414062;stroke-opacity:1"
       d="m 99.68572,183.6749 c -0.07997,0.0545 -0.423881,0.29492 -1.494298,1.04483 -1.480055,1.03689 -1.401466,0.98096 -1.401466,0.99746 0,0.006 0.0013,0.008 0.0052,0.005 0.0029,-0.002 0.123301,-0.0868 0.267684,-0.18791 0.144386,-0.1011 0.561105,-0.39311 0.926042,-0.6489 0.998657,-0.69996 1.350335,-0.946 1.565947,-1.09559 l 0.195739,-0.1358 0.203329,0.14131 c 0.512933,0.35649 1.980253,1.3844 3.263803,2.2864 0.25789,0.18122 0.27069,0.18965 0.28641,0.18844 0.016,-0.001 -5.3e-4,-0.0131 -0.59655,-0.43106 -1.97818,-1.38698 -3.138604,-2.19773 -3.154158,-2.20369 -0.0033,-0.001 -0.03301,0.0163 -0.06765,0.0399 z"
       id="path22953" />
    <path
       style="fill:#ff0000;stroke:#e90000;stroke-width:0.0156496;stroke-opacity:1"
       d=""
       id="path22955"
       transform="scale(0.26458333)" />
    <path
       style="fill:#ff0000;stroke:#e90000;stroke-width:0.00146393;stroke-opacity:1"
       d="m 99.317314,183.31842 c 0.01635,0.0169 0.01651,0.0216 0.0013,0.0333 -0.02405,0.0184 -0.375312,0.26749 -0.667703,0.47351 -0.03401,0.024 -0.06151,0.0439 -0.06111,0.0443 7.94e-4,7.9e-4 0.758028,-0.53038 0.757928,-0.53163 -7.2e-5,-7.9e-4 -0.0379,-0.0297 -0.04004,-0.0305 -7.94e-4,-2.7e-4 0.0035,0.005 0.0097,0.0111 z"
       id="path22957" />
    <path
       style="fill:#ff0000;stroke:#e90000;stroke-width:0.00146393;stroke-opacity:1"
       d="m 99.745299,183.62864 c -0.0021,0.002 -0.0066,0.004 -0.01024,0.006 -0.0063,0.003 -0.0363,0.0239 -0.157855,0.10872 -0.08869,0.0619 -0.781564,0.54668 -0.929595,0.65044 -0.07356,0.0516 -0.263644,0.18475 -0.422413,0.29598 -0.158769,0.11123 -0.291304,0.20415 -0.294518,0.2065 l -0.0058,0.004 0.0066,-5.3e-4 c 0.0061,-5.3e-4 0.03881,-0.0231 0.417295,-0.28833 0.894048,-0.62646 1.288865,-0.90235 1.346163,-0.94069 0.02691,-0.018 0.05317,-0.0336 0.05664,-0.0336 0.0016,0 0.01275,0.007 0.02495,0.0149 0.04022,0.027 0.265644,0.18325 0.450164,0.31205 0.0199,0.0139 0.0366,0.0253 0.0369,0.0253 2.7e-4,0 5.3e-4,-0.002 5.3e-4,-0.004 -6e-5,-0.004 -0.0164,-0.0153 -0.18361,-0.13191 -0.248709,-0.1733 -0.31507,-0.21934 -0.317655,-0.22036 -0.0013,-5.3e-4 -0.0046,-0.002 -0.0076,-0.004 -0.0064,-0.004 -0.0054,-0.004 -0.0099,-5.3e-4 z m 0.007,0.004 c -0.0021,0.002 -0.02357,0.0125 -0.02267,0.0116 0.003,-0.003 0.02082,-0.0134 0.02191,-0.0127 7.94e-4,5.3e-4 0.0011,7.9e-4 7.94e-4,0.001 z"
       id="path22959" />
    <path
       style="fill:#ff0000;stroke:#e90000;stroke-width:0.00553297;stroke-opacity:1"
       d=""
       id="path22961"
       transform="scale(0.26458333)" />
    <path
       style="fill:#ff0000;stroke:#e90000;stroke-width:0.00146393;stroke-opacity:1"
       d="m 99.624715,183.69539 c -0.06672,0.047 -0.479901,0.33713 -0.91817,0.64482 -0.666753,0.46809 -0.796187,0.5595 -0.792748,0.55987 0.0034,2.7e-4 0.01646,-0.008 0.07262,-0.0476 1.04435,-0.73283 1.760066,-1.2345 1.761797,-1.2349 0.0013,-2.6e-4 0.117636,0.0804 0.258716,0.17923 0.21793,0.15271 0.26917,0.18773 0.25559,0.17471 -0.003,-0.003 -0.514515,-0.36175 -0.515539,-0.36162 -5.29e-4,7e-5 -0.05554,0.0385 -0.122264,0.0855 z"
       id="path22963" />
    <path
       style="fill:#ff0000;stroke:#e90000;stroke-width:0.00103516;stroke-opacity:1"
       d="m 99.291096,183.94309 c -2.64e-4,5.2e-4 -1.74e-4,10e-4 2.65e-4,10e-4 5.29e-4,0 0.0013,-5.3e-4 0.0016,-10e-4 2.65e-4,-5.3e-4 1.75e-4,-0.001 -2.64e-4,-0.001 -5.29e-4,0 -0.0013,5.3e-4 -0.0016,0.001 z"
       id="path22965" />
    <g
       id="g22970"
       transform="matrix(1,0,0,-1,0,379.62313)">
      <path
         style="fill:#ff0000;stroke:#e90000;stroke-width:0.0039124;stroke-opacity:1"
         d="m 376.8571,740.70211 c -0.1752,-0.12194 -1.29205,-0.90421 -2.09343,-1.46629 -1.82854,-1.28252 -2.15259,-1.51032 -2.15089,-1.51201 0.002,-0.002 0.57986,0.40259 2.39894,1.67651 0.1375,0.0963 0.26142,0.18305 0.27539,0.1928 0.014,0.01 0.21435,0.14979 0.44531,0.31123 0.71209,0.49772 1.18027,0.82388 1.23823,0.86259 0.023,0.0154 0.0365,0.0177 0.0495,0.009 0.004,-0.003 0.009,-0.005 0.0106,-0.003 10e-4,0.001 0.002,4.2e-4 0.002,-0.002 0,-0.002 0.003,-0.005 0.006,-0.005 0.003,0 0.006,-0.002 0.006,-0.004 0,-0.002 0.002,-0.004 0.005,-0.004 0.003,0 0.0207,-0.0109 0.04,-0.0242 0.0667,-0.0459 0.59407,-0.41216 0.73636,-0.51143 0.16323,-0.11387 0.15235,-0.10661 0.15235,-0.10166 0,0.007 -0.95214,0.67023 -0.97409,0.67865 -0.003,10e-4 -0.0691,-0.0426 -0.14733,-0.0971 z"
         id="path22967"
         transform="scale(0.26458333)" />
    </g>
    <rect
       style="fill:#ffffff;fill-opacity:0;stroke:#ffffff;stroke-width:0.264999;stroke-opacity:1"
       id="rect1484"
       width="84.938255"
       height="45.836723"
       x="57.324787"
       y="165.75465"
       inkscape:export-filename="layer2.pdf"
       inkscape:export-xdpi="96"
       inkscape:export-ydpi="96" />
  </g>
</svg>
