<?xml version="1.0" encoding="UTF-8" standalone="no"?>
<!-- Created with Inkscape (http://www.inkscape.org/) -->

<svg
   width="210mm"
   height="297mm"
   viewBox="0 0 210 297"
   version="1.1"
   id="svg11923"
   inkscape:export-filename="bitmap.svg"
   inkscape:export-xdpi="96"
   inkscape:export-ydpi="96"
   inkscape:version="1.2.2 (732a01da63, 2022-12-09)"
   sodipodi:docname="pivot1.svg"
   xmlns:inkscape="http://www.inkscape.org/namespaces/inkscape"
   xmlns:sodipodi="http://sodipodi.sourceforge.net/DTD/sodipodi-0.dtd"
   xmlns="http://www.w3.org/2000/svg"
   xmlns:svg="http://www.w3.org/2000/svg">
  <sodipodi:namedview
     id="namedview11925"
     pagecolor="#ffffff"
     bordercolor="#000000"
     borderopacity="0.25"
     inkscape:showpageshadow="2"
     inkscape:pageopacity="0.0"
     inkscape:pagecheckerboard="0"
     inkscape:deskcolor="#d1d1d1"
     inkscape:document-units="mm"
     showgrid="false"
     inkscape:zoom="2.8284271"
     inkscape:cx="336.22927"
     inkscape:cy="721.95602"
     inkscape:window-width="1920"
     inkscape:window-height="1009"
     inkscape:window-x="-8"
     inkscape:window-y="-8"
     inkscape:window-maximized="1"
     inkscape:current-layer="layer1" />
  <defs
     id="defs11920">
    <marker
       style="overflow:visible"
       id="Arrow5"
       refX="0"
       refY="0"
       orient="auto-start-reverse"
       inkscape:stockid="Arrow5"
       markerWidth="5.8874259"
       markerHeight="6.6094756"
       viewBox="0 0 5.8874262 6.6094758"
       inkscape:isstock="true"
       inkscape:collect="always"
       preserveAspectRatio="xMidYMid">
      <path
         transform="scale(0.5)"
         style="fill:context-stroke;fill-rule:evenodd;stroke:context-stroke;stroke-width:1pt"
         d="m 6,0 c -3,1 -7,3 -9,5 0,0 0,-4 2,-5 -2,-1 -2,-5 -2,-5 2,2 6,4 9,5 z"
         id="path8893" />
    </marker>
    <marker
       style="overflow:visible"
       id="Arrow5-4"
       refX="0"
       refY="0"
       orient="auto-start-reverse"
       inkscape:stockid="Arrow5"
       markerWidth="5.8874259"
       markerHeight="6.6094756"
       viewBox="0 0 5.8874262 6.6094758"
       inkscape:isstock="true"
       inkscape:collect="always"
       preserveAspectRatio="xMidYMid">
      <path
         transform="scale(0.5)"
         style="fill:context-stroke;fill-rule:evenodd;stroke:context-stroke;stroke-width:1pt"
         d="m 6,0 c -3,1 -7,3 -9,5 0,0 0,-4 2,-5 -2,-1 -2,-5 -2,-5 2,2 6,4 9,5 z"
         id="path8893-5" />
    </marker>
  </defs>
  <g
     inkscape:label="Layer 1"
     inkscape:groupmode="layer"
     id="layer1">
    <g
       id="g904-3-9-1-1-77"
       transform="matrix(-1,0,0,1,136.63417,141.43689)">
      <g
         id="g839-0-42-89-20-2">
        <rect
           style="opacity:1;fill:none;fill-opacity:1;stroke:#000000;stroke-width:1;stroke-linecap:round;stroke-linejoin:round;stroke-miterlimit:4;stroke-dasharray:none;stroke-opacity:1"
           id="rect833-6-5-6-7-8"
           width="19.815037"
           height="6.1332278"
           x="17.132084"
           y="55.719059"
           ry="0" />
        <circle
           style="opacity:1;fill:none;fill-opacity:1;stroke:#000000;stroke-width:1;stroke-linecap:round;stroke-linejoin:round;stroke-miterlimit:4;stroke-dasharray:none;stroke-opacity:1"
           id="path835-0-0-04-7-2"
           cx="27.039602"
           cy="58.785671"
           r="0.25056517" />
      </g>
      <g
         id="g839-3-0-9-1-5-4"
         transform="translate(9.9075185,-6.1332283)">
        <rect
           style="opacity:1;fill:none;fill-opacity:1;stroke:#000000;stroke-width:1;stroke-linecap:round;stroke-linejoin:round;stroke-miterlimit:4;stroke-dasharray:none;stroke-opacity:1"
           id="rect833-5-9-6-8-85-7"
           width="19.815037"
           height="6.1332278"
           x="17.132084"
           y="55.719059"
           ry="0" />
        <circle
           style="opacity:1;fill:none;fill-opacity:1;stroke:#000000;stroke-width:1;stroke-linecap:round;stroke-linejoin:round;stroke-miterlimit:4;stroke-dasharray:none;stroke-opacity:1"
           id="path835-5-73-9-5-0-4"
           cx="27.039602"
           cy="58.785671"
           r="0.25056517" />
      </g>
    </g>
    <g
       id="g13341"
       transform="matrix(-1,0,0,1,126.77766,135.32578)">
      <g
         id="g13333">
        <rect
           style="opacity:1;fill:none;fill-opacity:1;stroke:#000000;stroke-width:1;stroke-linecap:round;stroke-linejoin:round;stroke-miterlimit:4;stroke-dasharray:none;stroke-opacity:1"
           id="rect13329"
           width="19.815037"
           height="6.1332278"
           x="17.132084"
           y="55.719059"
           ry="0" />
        <circle
           style="opacity:1;fill:none;fill-opacity:1;stroke:#000000;stroke-width:1;stroke-linecap:round;stroke-linejoin:round;stroke-miterlimit:4;stroke-dasharray:none;stroke-opacity:1"
           id="circle13331"
           cx="27.039602"
           cy="58.785671"
           r="0.25056517" />
      </g>
      <g
         id="g13339"
         transform="translate(9.9075185,-6.1332283)">
        <rect
           style="opacity:1;fill:none;fill-opacity:1;stroke:#000000;stroke-width:1;stroke-linecap:round;stroke-linejoin:round;stroke-miterlimit:4;stroke-dasharray:none;stroke-opacity:1"
           id="rect13335"
           width="19.815037"
           height="6.1332278"
           x="17.132084"
           y="55.719059"
           ry="0" />
        <circle
           style="opacity:1;fill:none;fill-opacity:1;stroke:#000000;stroke-width:1;stroke-linecap:round;stroke-linejoin:round;stroke-miterlimit:4;stroke-dasharray:none;stroke-opacity:1"
           id="circle13337"
           cx="27.039602"
           cy="58.785671"
           r="0.25056517" />
      </g>
    </g>
    <g
       id="g13355"
       transform="matrix(-1,0,0,1,116.83168,129.15655)">
      <g
         id="g13347">
        <rect
           style="opacity:1;fill:none;fill-opacity:1;stroke:#000000;stroke-width:1;stroke-linecap:round;stroke-linejoin:round;stroke-miterlimit:4;stroke-dasharray:none;stroke-opacity:1"
           id="rect13343"
           width="19.815037"
           height="6.1332278"
           x="17.132084"
           y="55.719059"
           ry="0" />
        <circle
           style="opacity:1;fill:none;fill-opacity:1;stroke:#000000;stroke-width:1;stroke-linecap:round;stroke-linejoin:round;stroke-miterlimit:4;stroke-dasharray:none;stroke-opacity:1"
           id="circle13345"
           cx="27.039602"
           cy="58.785671"
           r="0.25056517" />
      </g>
      <g
         id="g13353"
         transform="translate(9.9075185,-6.1332283)">
        <rect
           style="opacity:1;fill:none;fill-opacity:1;stroke:#000000;stroke-width:1;stroke-linecap:round;stroke-linejoin:round;stroke-miterlimit:4;stroke-dasharray:none;stroke-opacity:1"
           id="rect13349"
           width="19.815037"
           height="6.1332278"
           x="17.132084"
           y="55.719059"
           ry="0" />
        <circle
           style="opacity:1;fill:none;fill-opacity:1;stroke:#000000;stroke-width:1;stroke-linecap:round;stroke-linejoin:round;stroke-miterlimit:4;stroke-dasharray:none;stroke-opacity:1"
           id="circle13351"
           cx="27.039602"
           cy="58.785671"
           r="0.25056517" />
      </g>
    </g>
    <g
       id="g904-3-9-1-1-77-4"
       transform="matrix(-1,0,0,1,136.71217,129.15055)">
      <g
         id="g839-0-42-89-20-2-7">
        <rect
           style="opacity:1;fill:none;fill-opacity:1;stroke:#000000;stroke-width:1;stroke-linecap:round;stroke-linejoin:round;stroke-miterlimit:4;stroke-dasharray:none;stroke-opacity:1"
           id="rect833-6-5-6-7-8-6"
           width="19.815037"
           height="6.1332278"
           x="17.132084"
           y="55.719059"
           ry="0" />
        <circle
           style="opacity:1;fill:none;fill-opacity:1;stroke:#000000;stroke-width:1;stroke-linecap:round;stroke-linejoin:round;stroke-miterlimit:4;stroke-dasharray:none;stroke-opacity:1"
           id="path835-0-0-04-7-2-1"
           cx="27.039602"
           cy="58.785671"
           r="0.25056517" />
      </g>
      <g
         id="g839-3-0-9-1-5-4-4"
         transform="translate(9.9075185,-6.1332283)">
        <rect
           style="opacity:1;fill:none;fill-opacity:1;stroke:#000000;stroke-width:1;stroke-linecap:round;stroke-linejoin:round;stroke-miterlimit:4;stroke-dasharray:none;stroke-opacity:1"
           id="rect833-5-9-6-8-85-7-1"
           width="19.815037"
           height="6.1332278"
           x="17.132084"
           y="55.719059"
           ry="0" />
        <circle
           style="opacity:1;fill:none;fill-opacity:1;stroke:#000000;stroke-width:1;stroke-linecap:round;stroke-linejoin:round;stroke-miterlimit:4;stroke-dasharray:none;stroke-opacity:1"
           id="path835-5-73-9-5-0-4-2"
           cx="27.039602"
           cy="58.785671"
           r="0.25056517" />
      </g>
    </g>
    <g
       id="g904-3-9-1-1-77-2"
       transform="translate(62.807355,141.43528)">
      <g
         id="g839-0-42-89-20-2-6">
        <rect
           style="opacity:1;fill:none;fill-opacity:1;stroke:#000000;stroke-width:1;stroke-linecap:round;stroke-linejoin:round;stroke-miterlimit:4;stroke-dasharray:none;stroke-opacity:1"
           id="rect833-6-5-6-7-8-79"
           width="19.815037"
           height="6.1332278"
           x="17.132084"
           y="55.719059"
           ry="0" />
        <circle
           style="opacity:1;fill:none;fill-opacity:1;stroke:#000000;stroke-width:1;stroke-linecap:round;stroke-linejoin:round;stroke-miterlimit:4;stroke-dasharray:none;stroke-opacity:1"
           id="path835-0-0-04-7-2-2"
           cx="27.039602"
           cy="58.785671"
           r="0.25056517" />
      </g>
      <g
         id="g839-3-0-9-1-5-4-9"
         transform="translate(9.9075185,-6.1332283)">
        <rect
           style="opacity:1;fill:none;fill-opacity:1;stroke:#000000;stroke-width:1;stroke-linecap:round;stroke-linejoin:round;stroke-miterlimit:4;stroke-dasharray:none;stroke-opacity:1"
           id="rect833-5-9-6-8-85-7-5"
           width="19.815037"
           height="6.1332278"
           x="17.132084"
           y="55.719059"
           ry="0" />
        <circle
           style="opacity:1;fill:none;fill-opacity:1;stroke:#000000;stroke-width:1;stroke-linecap:round;stroke-linejoin:round;stroke-miterlimit:4;stroke-dasharray:none;stroke-opacity:1"
           id="path835-5-73-9-5-0-4-5"
           cx="27.039602"
           cy="58.785671"
           r="0.25056517" />
      </g>
    </g>
    <path
       style="fill:none;fill-opacity:0.984314;stroke-width:0.239367"
       d="m 378.91811,756.75907 v -9.455 h 35.42633 35.42633 v 9.455 9.455 h -35.42633 -35.42633 z m 37.05646,2.50721 c 0.7579,-0.46207 1.48164,-1.69459 1.48164,-2.52319 0,-0.75396 -0.80694,-2.07972 -1.53673,-2.52474 -2.55938,-1.56071 -5.46178,1.20139 -4.07677,3.87971 0.45961,0.8888 1.67008,1.65131 2.62141,1.65131 0.39496,0 1.07466,-0.21739 1.51045,-0.48309 z"
       id="path13600"
       transform="scale(0.26458333)" />
    <path
       style="fill:none;fill-opacity:0.984314;stroke-width:0.264583"
       d="M 111.78646,204.05989 C 74.017187,175.3526 74.017187,175.41875 74.017187,175.41875"
       id="path14159" />
    <g
       id="g904-3-9-1-1-77-2-1"
       transform="translate(82.645221,129.14192)">
      <g
         id="g839-0-42-89-20-2-6-1">
        <rect
           style="opacity:1;fill:none;fill-opacity:1;stroke:#000000;stroke-width:1;stroke-linecap:round;stroke-linejoin:round;stroke-miterlimit:4;stroke-dasharray:none;stroke-opacity:1"
           id="rect833-6-5-6-7-8-79-0"
           width="19.815037"
           height="6.1332278"
           x="17.132084"
           y="55.719059"
           ry="0" />
        <circle
           style="opacity:1;fill:none;fill-opacity:1;stroke:#000000;stroke-width:1;stroke-linecap:round;stroke-linejoin:round;stroke-miterlimit:4;stroke-dasharray:none;stroke-opacity:1"
           id="path835-0-0-04-7-2-2-8"
           cx="27.039602"
           cy="58.785671"
           r="0.25056517" />
      </g>
      <g
         id="g839-3-0-9-1-5-4-9-1"
         transform="translate(9.9075185,-6.1332283)">
        <rect
           style="opacity:1;fill:none;fill-opacity:1;stroke:#000000;stroke-width:1;stroke-linecap:round;stroke-linejoin:round;stroke-miterlimit:4;stroke-dasharray:none;stroke-opacity:1"
           id="rect833-5-9-6-8-85-7-5-5"
           width="19.815037"
           height="6.1332278"
           x="17.132084"
           y="55.719059"
           ry="0" />
        <circle
           style="opacity:1;fill:none;fill-opacity:1;stroke:#000000;stroke-width:1;stroke-linecap:round;stroke-linejoin:round;stroke-miterlimit:4;stroke-dasharray:none;stroke-opacity:1"
           id="path835-5-73-9-5-0-4-5-2"
           cx="27.039602"
           cy="58.785671"
           r="0.25056517" />
      </g>
    </g>
    <path
       style="fill:#050086;fill-opacity:1;stroke:#2100e9;stroke-width:0.365688;stroke-dasharray:none;stroke-opacity:1;marker-start:url(#Arrow5)"
       d="m 68.339993,174.23672 c 60.359777,42.20788 60.268177,42.48077 0,0 z"
       id="path17513" />
    <path
       style="fill:#050086;fill-opacity:1;stroke:#26e900;stroke-width:0.365688;stroke-dasharray:none;stroke-opacity:1;marker-start:url(#Arrow5-4)"
       d="m 131.04013,174.31728 c -60.359784,42.20788 -60.268184,42.48077 0,0 z"
       id="path17513-3" />
    <path
       style="fill:#ff0000;stroke:#26e900;stroke-width:0.35411"
       d="m 341.53258,733.62329 v -9.54595 h 4.16066 4.16066 l 12.67132,8.89689 12.67133,8.89689 -0.8337,0.64119 c -0.77651,0.59721 -1.93106,0.64173 -16.83198,0.64906 l -15.99829,0.008 z"
       id="path22256"
       transform="scale(0.26458333)" />
    <path
       style="fill:#ff0000;stroke:#26e900;stroke-width:0.35411"
       d="m 365.2317,732.33555 -11.77168,-8.25821 h 23.45192 c 13.62266,0 23.31115,0.13116 23.11604,0.31294 -0.18473,0.17212 -5.44084,3.88831 -11.68023,8.25821 l -11.34437,7.94527 z m 12.90726,3.95649 c 2.03284,-0.84938 2.46997,-3.51915 0.82059,-5.01182 -0.90507,-0.81907 -3.25435,-0.80446 -4.17194,0.0259 -1.56423,1.41561 -1.10706,4.15181 0.83498,4.99743 1.35243,0.58889 1.07624,0.59016 2.51637,-0.0116 z"
       id="path22258"
       transform="scale(0.26458333)" />
    <path
       style="fill:#ff0000;stroke:#e90000;stroke-width:0.35411;stroke-opacity:1"
       d="m 379.75933,742.50688 -0.8409,-0.64662 1.19445,-0.88687 c 0.65695,-0.48778 6.33279,-4.48893 12.61298,-8.89146 l 11.41852,-8.00459 h 4.04944 4.04943 v 9.54595 9.54594 l -15.82151,-0.008 c -14.77905,-0.007 -15.87692,-0.0505 -16.66241,-0.65449 z"
       id="path22260"
       transform="scale(0.26458333)" />
    <path
       style="fill:#ff0000;stroke:#e90000;stroke-width:0.35411;stroke-opacity:1"
       d="m 365.87092,732.30548 -10.9689,-7.69781 21.57913,-0.0911 c 11.86852,-0.0501 21.69867,0.0294 21.84477,0.17678 0.22053,0.22241 -20.17907,14.87428 -21.1684,15.20406 -0.17474,0.0582 -5.25371,-3.35811 -11.2866,-7.5919 z m 13.40348,3.52454 c 1.30346,-1.23984 1.35048,-3.27488 0.10446,-4.5209 -0.66934,-0.66935 -1.23903,-0.86781 -2.49095,-0.86781 -2.97911,0 -4.41079,2.80982 -2.60281,5.1083 1.44412,1.83591 3.24743,1.93726 4.9893,0.28041 z"
       id="path22835"
       transform="scale(0.26458333)" />
    <path
       style="fill:#ff0000;stroke:#e90000;stroke-width:0.35411;stroke-opacity:1"
       d="m 341.70935,733.63704 v -9.20614 h 3.98761 3.98761 l 12.45174,8.73688 c 10.43826,7.32411 12.35184,8.79625 11.83391,9.104 -0.3952,0.23482 -6.31924,0.40392 -16.43935,0.46926 l -15.82152,0.10214 z"
       id="path22837"
       transform="scale(0.26458333)" />
    <path
       style="fill:#ff0000;stroke:#e90000;stroke-width:0.35411;stroke-opacity:1"
       d="m 367.25358,724.51952 c 5.39611,-0.0549 14.22611,-0.0549 19.62222,0 5.39611,0.0549 0.98111,0.0998 -9.81111,0.0998 -10.79222,0 -15.20721,-0.0449 -9.81111,-0.0998 z"
       id="path22839"
       transform="scale(0.26458333)" />
    <path
       style="fill:#ff0000;stroke:#e90000;stroke-width:0.0625984;stroke-opacity:1"
       d="M 364.99242,732.33735 353,723.92471 l 20.40625,0.0326 c 21.79348,0.0349 26.34545,0.0889 26.65679,0.31658 0.055,0.0402 0.084,0.11481 0.0645,0.16576 -0.0531,0.13827 -2.97366,2.20801 -15.48968,10.97704 -4.18669,2.93331 -7.62135,5.33328 -7.63258,5.33328 -0.0112,0 -5.41701,-3.78569 -12.01283,-8.41265 z m 19.67411,2.71916 c 11.36351,-7.96323 14.92722,-10.48378 14.92722,-10.5578 0,-0.17265 -10.19058,-0.25676 -28.62812,-0.2363 l -16.97187,0.0188 3.00312,2.1061 c 1.65172,1.15835 6.81406,4.78041 11.47187,8.04902 5.20234,3.65072 8.50888,5.93283 8.57278,5.91677 0.0572,-0.0144 3.48847,-2.39786 7.625,-5.29663 z"
       id="path22841"
       transform="scale(0.26458333)" />
    <path
       style="fill:#ff0000;stroke:#e90000;stroke-width:0.0625984;stroke-opacity:1"
       d="m 400.21875,724.38146 c 0,-0.0699 -0.0567,-0.15741 -0.12602,-0.1945 -0.0693,-0.0371 -0.68102,-0.09 -1.35937,-0.11766 l -1.23336,-0.0502 1.71155,-0.01 c 1.90177,-0.0106 1.7894,-0.0439 1.21033,0.358 -0.19967,0.13856 -0.20313,0.1388 -0.20313,0.0139 z"
       id="path22843"
       transform="scale(0.26458333)" />
    <path
       style="fill:#ff0000;stroke:#e90000;stroke-width:0.0625984;stroke-opacity:1"
       d="m 375.30725,739.51191 c -0.92524,-0.64657 -4.28381,-3.00017 -7.4635,-5.23021 -3.17969,-2.23004 -7.76406,-5.44501 -10.1875,-7.14438 -2.42344,-1.69937 -4.42031,-3.10414 -4.4375,-3.12169 -0.0559,-0.0571 40.89411,0.0434 43.4375,0.10652 2.56185,0.0636 3.2381,0.10337 3.38319,0.19882 0.11618,0.0764 0.004,0.1702 -1.45752,1.22371 -2.1636,1.55908 -21.51452,15.14282 -21.57194,15.14282 -0.0113,0 -0.77749,-0.52901 -1.70273,-1.17559 z m 3.21499,-0.11689 c 3.81212,-2.63967 15.80443,-11.05237 18.88686,-13.24927 1.97092,-1.40472 2.23765,-1.61139 2.16942,-1.68093 -0.10601,-0.10803 -2.37498,-0.14561 -13.01602,-0.2156 -7.50742,-0.0494 -14.71669,-0.0562 -21.91629,-0.0208 l -10.72879,0.0528 5.25535,3.6875 c 15.05145,10.56109 17.70835,12.40625 17.86417,12.40625 0.0385,0 0.70691,-0.44099 1.4853,-0.97998 z"
       id="path22845"
       transform="scale(0.26458333)" />
    <path
       style="fill:#ff0000;stroke:#e90000;stroke-width:0.0625984;stroke-opacity:1"
       d="m 341.40625,733.63111 v -9.69361 h 4.2467 4.2467 l 12.73768,8.94263 c 7.00572,4.91845 12.7432,8.96142 12.74995,8.98438 0.0171,0.058 -1.00633,0.82045 -1.28459,0.95712 -0.33533,0.16471 -1.20345,0.29331 -2.50894,0.37167 -0.75955,0.0456 -6.1365,0.08 -15.67187,0.1004 l -14.51563,0.031 z m 22.96875,9.34069 c 7.34533,-0.0308 8.76869,-0.0847 9.5,-0.35969 0.20883,-0.0785 1.03125,-0.66131 1.03125,-0.73078 0,-0.0244 -5.63596,-4.00142 -12.52435,-8.83784 L 349.85755,724.25 h -4.16315 -4.16315 v 9.39508 9.39507 l 8.07813,-0.0201 c 4.44296,-0.0111 11.0875,-0.0328 14.76562,-0.0482 z"
       id="path22847"
       transform="scale(0.26458333)" />
    <path
       style="fill:#ff0000;stroke:#e90000;stroke-width:0.0625984;stroke-opacity:1"
       d="m 376.78125,743.09375 c 0.11648,-0.0859 0.21492,-0.15625 0.21875,-0.15625 0.004,0 0.10227,0.0703 0.21875,0.15625 l 0.21179,0.15625 H 377 376.56947 Z"
       id="path22849"
       transform="scale(0.26458333)" />
    <path
       style="fill:#ff0000;stroke:#e90000;stroke-width:0.0625984;stroke-opacity:1"
       d=""
       id="path22851"
       transform="scale(0.26458333)" />
    <path
       style="fill:#ff0000;stroke:#e90000;stroke-width:0.0625984;stroke-opacity:1"
       d=""
       id="path22853"
       transform="scale(0.26458333)" />
    <path
       style="fill:#ff0000;stroke:#e90000;stroke-width:0.0625984;stroke-opacity:1"
       d="m 384.6875,743.24683 c -3.24331,-0.0609 -4.32779,-0.18127 -4.875,-0.54107 -0.4763,-0.31318 -1.10445,-0.84503 -1.05235,-0.89101 0.48167,-0.42506 4.58586,-3.32569 19.66499,-13.89821 l 5.67515,-3.97904 h 4.15298 4.15298 v 9.6875 9.6875 l -12.67187,-0.0105 c -6.96954,-0.006 -13.74063,-0.0306 -15.04688,-0.0551 z m 27.40625,-9.62183 v -9.375 h -3.95577 -3.95576 l -4.87236,3.41599 c -16.26774,11.40523 -20.09501,14.1113 -20.08854,14.20362 0.007,0.10521 0.88087,0.66558 1.18511,0.76027 0.99804,0.31062 2.88363,0.34634 18.9842,0.35963 L 412.09375,743 Z"
       id="path22857"
       transform="scale(0.26458333)" />
    <path
       style="fill:#ff0000;stroke:#e90000;stroke-width:0.0625984;stroke-opacity:1"
       d="m 376.24305,737.09448 c -0.21008,-0.0457 -0.50539,-0.14535 -0.65625,-0.22144 -0.69982,-0.35299 -1.51856,-1.20599 -1.89452,-1.9738 -0.62426,-1.27492 -0.41101,-2.67424 0.55138,-3.61799 0.69604,-0.68256 1.49853,-0.96626 2.73764,-0.96783 0.83281,-10e-4 1.24797,0.0702 1.73264,0.29715 0.38803,0.18173 1.01883,0.78175 1.26609,1.20432 0.62494,1.06799 0.59553,2.45458 -0.0742,3.49825 -0.50371,0.78496 -1.66106,1.59516 -2.54679,1.78286 -0.50399,0.1068 -0.61875,0.10664 -1.116,-0.002 z m 1.44274,-0.41171 c 0.745,-0.27874 1.66162,-1.00663 2.00731,-1.59401 0.67589,-1.14846 0.54961,-2.58251 -0.31398,-3.56537 -0.58714,-0.66824 -1.20301,-0.9058 -2.3707,-0.91448 -0.38275,-0.003 -0.85061,0.031 -1.03967,0.0753 -1.14885,0.26892 -2.00804,1.07867 -2.2507,2.12119 -0.10582,0.45465 -0.0485,1.2609 0.11975,1.68308 0.35508,0.89122 1.09141,1.69685 1.89331,2.0715 0.28539,0.13333 0.60327,0.25593 0.70639,0.27244 0.31245,0.05 0.9042,-0.0209 1.24829,-0.14965 z"
       id="path22859"
       transform="scale(0.26458333)" />
    <path
       style="fill:#ff0000;stroke:#e90000;stroke-width:0.0625984;stroke-opacity:1"
       d="m 376.17278,737.03262 c -0.54026,-0.15206 -0.9327,-0.38772 -1.42606,-0.85636 -0.88977,-0.8452 -1.34047,-1.76227 -1.34047,-2.72757 0,-0.88011 0.3028,-1.58057 0.9519,-2.20194 0.63447,-0.60739 1.43133,-0.86877 2.6544,-0.87066 1.24136,-0.002 1.75413,0.18515 2.43579,0.88869 0.68154,0.70341 0.91889,1.29364 0.91141,2.26647 -0.008,0.98947 -0.37165,1.79266 -1.11454,2.459 -0.99043,0.88838 -2.18256,1.29283 -3.07243,1.04237 z m 1.70441,-0.39947 c 1.54599,-0.72345 2.34197,-1.87909 2.2631,-3.28567 -0.0204,-0.36349 -0.0806,-0.69434 -0.16805,-0.92403 -0.29206,-0.76671 -1.02843,-1.4993 -1.71822,-1.70941 -0.44928,-0.13685 -1.59147,-0.18524 -2.149,-0.0911 -1.24533,0.21038 -2.23273,1.14848 -2.45087,2.32853 -0.0926,0.50081 0.0148,1.28058 0.2428,1.76369 0.4053,0.85866 1.03895,1.49419 1.91555,1.92123 0.48926,0.23835 0.51228,0.24305 1.07135,0.21889 0.47923,-0.0207 0.63938,-0.0565 0.99334,-0.22217 z"
       id="path22861"
       transform="scale(0.26458333)" />
    <path
       style="fill:#ff0000;stroke:#e90000;stroke-width:0.0625984;stroke-opacity:1"
       d="m 376.46875,736.76649 c -0.3246,-0.053 -1.18484,-0.52327 -1.52386,-0.83311 -0.42156,-0.38528 -0.92155,-1.11452 -1.07608,-1.56949 -0.0782,-0.23034 -0.11388,-0.52581 -0.1159,-0.96078 -0.003,-0.60284 0.007,-0.64728 0.23204,-1.10362 0.27627,-0.55912 0.72261,-1.00294 1.29754,-1.29024 0.55023,-0.27495 0.96548,-0.34177 1.9048,-0.30648 0.98166,0.0369 1.36616,0.16091 1.8522,0.59747 0.71939,0.64615 1.02599,1.39545 0.98088,2.39709 -0.0293,0.65045 -0.17898,1.06496 -0.58356,1.61611 -0.38426,0.52347 -1.39048,1.20828 -2.00036,1.3614 -0.32445,0.0815 -0.77099,0.12375 -0.9677,0.0916 z m 1.20433,-0.43844 c 0.73413,-0.29084 1.23122,-0.62302 1.53531,-1.02596 0.79374,-1.05175 0.8097,-2.43952 0.0401,-3.48499 -0.32918,-0.44717 -0.62021,-0.65557 -1.14161,-0.8175 -1.18079,-0.36671 -2.60392,-0.14704 -3.29758,0.509 -1.12965,1.06837 -1.06356,3.07366 0.13779,4.18103 0.27537,0.25383 1.10638,0.68939 1.61545,0.84672 0.29887,0.0924 0.39916,0.0736 1.11058,-0.2083 z"
       id="path22863"
       transform="scale(0.26458333)" />
    <path
       style="fill:#ff0000;stroke:#e90000;stroke-width:0.0625984;stroke-opacity:1"
       d="m 383.78125,743.18366 c -2.26626,-0.0605 -3.2875,-0.17402 -3.78125,-0.42052 -0.26725,-0.13342 -1.15625,-0.829 -1.15625,-0.90468 0,-0.0837 -0.1054,-0.005 2.46875,-1.84725 2.42669,-1.73686 5.85833,-4.15416 16.15625,-11.38075 l 6.59375,-4.62718 4.14063,-0.002 4.14062,-0.002 v 9.625 9.625 l -13.42187,-0.0103 c -7.38204,-0.006 -14.19532,-0.0309 -15.14063,-0.0561 z M 412.125,733.625 v -9.40625 l -3.95651,-0.0161 -3.9565,-0.0161 -7.01225,4.91809 c -15.44808,10.83466 -17.98099,12.63317 -17.98099,12.76759 0,0.17868 0.89364,0.71263 1.41145,0.84335 0.85942,0.21695 2.01264,0.23956 14.33855,0.28106 6.68594,0.0225 13.28125,0.0395 14.65625,0.0378 l 2.5,-0.003 z"
       id="path22865"
       transform="scale(0.26458333)" />
    <path
       style="fill:#ff0000;stroke:#e90000;stroke-width:0.0625984;stroke-opacity:1"
       d=""
       id="path22867"
       transform="scale(0.26458333)" />
    <path
       style="fill:#ff0000;stroke:#e90000;stroke-width:0.0625984;stroke-opacity:1"
       d=""
       id="path22869"
       transform="scale(0.26458333)" />
    <path
       style="fill:#ff0000;stroke:#e90000;stroke-width:0.125197;stroke-opacity:1"
       d=""
       id="path22871"
       transform="scale(0.26458333)" />
    <path
       style="fill:#ff0000;stroke:#e90000;stroke-width:0.0078248;stroke-opacity:1"
       d="m 370.82422,743.25306 c 0.0107,-10e-4 0.16543,-0.006 0.34375,-0.0107 0.45072,-0.0116 1.25954,-0.0612 1.66406,-0.10218 0.52013,-0.0526 0.90349,-0.1252 1.1593,-0.21942 0.0339,-0.0125 0.0627,-0.0216 0.0641,-0.0203 10e-4,0.001 -0.11136,0.0823 -0.25044,0.1799 l -0.25287,0.17746 -1.3737,-0.001 c -0.75554,-6.4e-4 -1.36491,-0.002 -1.35417,-0.004 z"
       id="path22873"
       transform="scale(0.26458333)" />
    <path
       style="fill:#ff0000;stroke:#e90000;stroke-width:0.0078248;stroke-opacity:1"
       d="m 370.25195,743.25264 c 0.005,-0.002 0.0142,-0.002 0.0195,0 0.005,0.002 9.7e-4,0.004 -0.01,0.004 -0.0107,0 -0.0151,-0.002 -0.01,-0.004 z"
       id="path22875"
       transform="scale(0.26458333)" />
    <path
       style="fill:#ff0000;stroke:#e90000;stroke-width:0.0039124;stroke-opacity:1"
       d="m 365.63867,743.30723 v -0.0131 l 0.50293,-0.003 c 1.01773,-0.005 2.7321,-0.0181 3.22559,-0.0239 0.69571,-0.008 0.87246,-0.009 0.88476,-0.006 0.0103,0.003 0.002,0.004 -0.0352,0.004 -0.0269,2.5e-4 -0.11914,0.002 -0.20508,0.004 -0.32276,0.008 -1.01931,0.0198 -1.59766,0.0274 -0.52253,0.007 -2.44728,0.0233 -2.74121,0.0234 l -0.0342,10e-6 z"
       id="path22877"
       transform="scale(0.26458333)" />
    <path
       style="fill:#ff0000;stroke:#e90000;stroke-width:0.0039124;stroke-opacity:1"
       d="m 365.88965,743.29026 -0.25098,-10e-4 v -0.0287 -0.0287 l 0.39551,-0.003 c 0.21753,-0.001 0.66709,-0.004 0.99902,-0.006 2.41984,-0.0153 3.96132,-0.0342 4.45117,-0.0547 0.10637,-0.004 0.33584,-0.0189 0.5293,-0.0332 1.07137,-0.0795 1.79139,-0.19815 2.08008,-0.34265 0.11637,-0.0582 0.39811,-0.2477 0.70112,-0.47146 0.0484,-0.0357 0.0902,-0.0663 0.0928,-0.068 0.004,-0.002 0.005,0.005 0.005,0.0335 v 0.0366 l -0.0928,0.068 c -0.30498,0.22367 -0.56064,0.39457 -0.68074,0.45505 -0.28721,0.14464 -0.99652,0.2642 -2.03898,0.34367 -0.072,0.005 -0.1625,0.0125 -0.20117,0.0156 -0.0654,0.005 -0.0667,0.005 -0.0195,0.004 0.11791,-0.004 0.51498,-0.0312 0.75196,-0.0507 0.51419,-0.0422 0.95263,-0.11 1.22479,-0.18928 0.0228,-0.007 0.0434,-0.0114 0.0458,-0.0107 0.002,7.8e-4 -0.0184,0.008 -0.0462,0.0157 -0.28788,0.0815 -0.69887,0.1453 -1.21262,0.18822 -0.45923,0.0384 -1.23511,0.0818 -1.51172,0.0846 -0.0346,3.5e-4 -0.0413,10e-4 -0.0293,0.004 0.009,0.002 0.56919,0.003 1.24577,0.003 0.67658,1.2e-4 1.22904,10e-4 1.22769,0.003 -0.003,0.003 -2.65315,10e-4 -2.69807,-0.002 l -0.0371,-0.003 0.0332,-10e-4 c 0.16052,-0.005 0.16583,-0.007 0.0176,-0.005 -0.0902,9.6e-4 -0.25986,0.003 -0.37695,0.005 -0.11709,0.002 -0.32012,0.005 -0.45117,0.006 -0.13106,10e-4 -0.26113,0.003 -0.28906,0.004 -0.0279,10e-4 -0.12989,0.003 -0.22657,0.003 -0.0967,5.3e-4 -0.26894,0.002 -0.38281,0.003 -0.11387,10e-4 -0.30898,0.003 -0.43359,0.004 -0.12461,10e-4 -0.33819,0.003 -0.47461,0.004 -0.23764,0.002 -0.45103,0.004 -1.08985,0.008 -0.82907,0.005 -0.95333,0.006 -0.97851,0.008 -0.015,9.1e-4 -0.14028,10e-4 -0.27832,3.9e-4 z m 5.25,-0.051 c -0.0177,-7.2e-4 -0.0467,-7.2e-4 -0.0645,0 -0.0177,7.3e-4 -0.003,0.001 0.0322,0.001 0.0355,0 0.05,-5.9e-4 0.0322,-0.001 z m 0.13281,-0.004 c -0.0113,-7.9e-4 -0.0297,-7.9e-4 -0.041,0 -0.0113,7.9e-4 -0.002,10e-4 0.0205,10e-4 0.0226,0 0.0318,-6.5e-4 0.0205,-10e-4 z m 0.11133,-0.004 c -0.006,-9e-4 -0.0156,-9e-4 -0.0215,0 -0.006,8.9e-4 -10e-4,0.002 0.0107,0.002 0.0118,0 0.0167,-7.3e-4 0.0107,-0.002 z m 0.0996,-0.004 c -0.003,-10e-4 -0.007,-10e-4 -0.01,0 -0.003,10e-4 -4.9e-4,0.002 0.005,0.002 0.005,0 0.008,-8.8e-4 0.005,-0.002 z m 0.0859,-0.004 c -0.003,-10e-4 -0.007,-10e-4 -0.01,0 -0.003,10e-4 -4.9e-4,0.002 0.005,0.002 0.005,0 0.008,-8.9e-4 0.005,-0.002 z m 0.0743,-0.004 c -0.003,-10e-4 -0.008,-10e-4 -0.0117,-1.4e-4 -0.004,9.9e-4 -0.002,0.002 0.005,0.002 0.006,8e-5 0.01,-7.3e-4 0.007,-0.002 z m 0.0762,-0.004 c -0.006,-8.9e-4 -0.0164,-9.1e-4 -0.0234,-4e-5 -0.007,8.7e-4 -0.002,0.002 0.0107,0.002 0.0129,2e-5 0.0186,-6.9e-4 0.0128,-0.002 z m 0.0662,-0.004 c -0.008,-8.4e-4 -0.0204,-8.3e-4 -0.0274,3e-5 -0.007,8.7e-4 -3e-4,0.002 0.0147,0.002 0.015,-10e-6 0.0207,-7.2e-4 0.0126,-0.002 z"
       id="path22879"
       transform="scale(0.26458333)" />
    <path
       style="fill:#ff0000;stroke:#e90000;stroke-width:0.0039124;stroke-opacity:1"
       d="m 370.64551,743.24711 c 0.0134,-7.6e-4 0.0354,-7.6e-4 0.0488,0 0.0134,7.6e-4 0.002,10e-4 -0.0244,10e-4 -0.0268,0 -0.0378,-6.2e-4 -0.0244,-10e-4 z"
       id="path22881"
       transform="scale(0.26458333)" />
    <path
       style="fill:#ff0000;stroke:#e90000;stroke-width:0.0039124;stroke-opacity:1"
       d="m 370.70508,743.25516 c 0.0517,-0.003 0.11329,-0.003 0.11329,-2.8e-4 -1e-5,0.002 -0.0303,0.003 -0.0674,0.002 -0.0371,-4e-4 -0.0577,-10e-4 -0.0459,-0.002 z"
       id="path22883"
       transform="scale(0.26458333)" />
    <path
       style="fill:#ff0000;stroke:#e90000;stroke-width:0.00553297;stroke-opacity:1"
       d="m 355.84596,743.32901 c 0.66236,-0.002 2.23844,-0.007 3.50239,-0.0103 2.1417,-0.006 3.65312,-0.0113 5.51737,-0.0202 0.76468,-0.004 0.76649,-0.004 0.76649,0.007 0,0.0109 -0.005,0.0111 -0.36046,0.0148 -0.67634,0.007 -4.8572,0.0141 -7.74641,0.0132 -2.45909,-7.3e-4 -2.70635,-0.001 -1.67938,-0.005 z"
       id="path22885"
       transform="scale(0.26458333)" />
    <path
       style="fill:#ff0000;stroke:#e90000;stroke-width:0.0078248;stroke-opacity:1"
       d="m 341.37891,738.80586 v -4.54805 h 0.0273 0.0273 v 4.52062 4.52061 l 1.06055,-0.005 c 0.5833,-0.003 2.40791,-0.007 4.05469,-0.01 l 2.99414,-0.005 v 0.0272 0.0273 l -2.01367,0.005 c -1.10752,0.003 -2.94444,0.007 -4.08203,0.0102 l -2.06836,0.005 z"
       id="path22887"
       transform="scale(0.26458333)" />
    <path
       style="fill:#ff0000;stroke:#e90000;stroke-width:0.0078248;stroke-opacity:1"
       d="m 341.38672,738.80866 v -4.54304 h 0.0195 0.0195 v 4.52082 4.52081 l 0.69727,-0.005 c 0.38349,-0.003 2.158,-0.007 3.94336,-0.009 1.78535,-0.002 3.29619,-0.006 3.35742,-0.008 l 0.11133,-0.004 v 0.0222 0.0222 l -1.4668,0.005 c -0.80674,0.003 -2.62168,0.007 -4.0332,0.009 -1.41153,0.002 -2.58487,0.006 -2.60743,0.008 l -0.041,0.004 z"
       id="path22889"
       transform="scale(0.26458333)" />
    <path
       style="fill:#ff0000;stroke:#e90000;stroke-width:0.0078248;stroke-opacity:1"
       d="m 341.35547,738.80078 c 0,-3.02344 0.003,-4.54297 0.008,-4.54297 0.005,0 0.008,1.51953 0.008,4.54297 0,3.02344 -0.003,4.54297 -0.008,4.54297 -0.005,0 -0.008,-1.51953 -0.008,-4.54297 z"
       id="path22891"
       transform="scale(0.26458333)" />
    <path
       style="fill:#ff0000;stroke:#e90000;stroke-width:0.0156496;stroke-opacity:1"
       d="m 384.30916,723.94156 c 0.0497,-0.003 0.12708,-0.003 0.17188,6e-5 0.0448,0.003 0.004,0.006 -0.0904,0.006 -0.0945,-4e-5 -0.13118,-0.003 -0.0815,-0.006 z"
       id="path22893"
       transform="scale(0.26458333)" />
    <path
       style="fill:#ff0000;stroke:#e90000;stroke-width:0.0156496;stroke-opacity:1"
       d="m 384.05906,723.91037 c 0.0411,-0.003 0.10437,-0.003 0.14063,9e-5 0.0363,0.003 0.003,0.006 -0.0747,0.006 -0.0773,-5e-5 -0.10701,-0.003 -0.0659,-0.006 z"
       id="path22895"
       transform="scale(0.26458333)" />
    <path
       style="fill:#ff0000;stroke:#e90000;stroke-width:0.0156496;stroke-opacity:1"
       d="m 383.96541,723.94156 c 0.0497,-0.003 0.12708,-0.003 0.17188,6e-5 0.0448,0.003 0.004,0.006 -0.0904,0.006 -0.0945,-4e-5 -0.13118,-0.003 -0.0815,-0.006 z"
       id="path22897"
       transform="scale(0.26458333)" />
    <path
       style="fill:#ff0000;stroke:#e90000;stroke-width:0.0156496;stroke-opacity:1"
       d=""
       id="path22899"
       transform="scale(0.26458333)" />
    <path
       style="fill:#ff0000;stroke:#e90000;stroke-width:0.0156496;stroke-opacity:1"
       d="m 384.65234,723.94158 c 0.0494,-0.003 0.13028,-0.003 0.17969,0 0.0494,0.003 0.009,0.006 -0.0898,0.006 -0.0988,0 -0.13926,-0.003 -0.0899,-0.006 z"
       id="path22903"
       transform="scale(0.26458333)" />
    <path
       style="fill:#ff0000;stroke:#e90000;stroke-width:0.0039124;stroke-opacity:1"
       d="m 388.5625,723.96457 c -0.31367,-0.002 -1.0625,-0.005 -1.66406,-0.007 -1.95037,-0.008 -2.03618,-0.008 -2.03821,-0.016 -0.002,-0.009 -0.0313,-0.0118 -0.11804,-0.0118 -0.0884,0 -0.11569,0.003 -0.11817,0.0123 -0.002,0.007 -0.007,0.007 -0.0576,0.007 -0.0515,0 -0.0559,-5.7e-4 -0.0577,-0.007 -0.002,-0.006 -0.007,-0.008 -0.036,-0.0103 -0.0524,-0.004 -0.18373,-4.5e-4 -0.19114,0.006 -0.003,0.003 -0.005,0.007 -0.004,0.009 10e-4,0.002 -0.0225,0.003 -0.0543,0.003 -0.0521,0 -0.0566,-5.6e-4 -0.0584,-0.007 -0.002,-0.006 -0.007,-0.008 -0.036,-0.0103 -0.0187,-0.002 -0.0681,-0.002 -0.10973,-10e-4 -0.0665,0.002 -0.0766,0.003 -0.0836,0.009 -0.008,0.007 -0.0424,0.007 -1.06945,0.005 -0.58384,-10e-4 -1.40386,-0.004 -1.82226,-0.005 l -0.76075,-0.003 v -0.015 -0.015 l 0.49903,-4e-5 c 1.10085,-10e-5 3.24894,0.009 3.2518,0.0132 0.004,0.007 0.1681,0.008 0.18193,0.002 0.009,-0.004 0.12191,-0.005 0.65513,-0.002 1.29136,0.006 2.57712,0.0131 4.292,0.0254 l 0.37402,0.003 v 0.0111 0.0111 l -0.20215,-6.6e-4 c -0.11118,-3.7e-4 -0.45879,-0.002 -0.77246,-0.004 z"
       id="path22905"
       transform="scale(0.26458333)" />
    <path
       style="fill:#ff0000;stroke:#e90000;stroke-width:0.0039124;stroke-opacity:1"
       d="m 378.93359,723.99735 c -0.0859,-4.3e-4 -1.31113,-0.003 -2.72265,-0.005 -1.41153,-0.002 -3.08189,-0.005 -3.71192,-0.007 l -1.1455,-0.003 v -0.0293 -0.0293 l 1.70214,0.003 c 2.68578,0.004 5.53009,0.01 6.58399,0.0126 l 0.96777,0.003 v 0.0287 0.029 l -0.75879,-9.3e-4 c -0.41733,-5.1e-4 -0.8291,-10e-4 -0.91504,-0.002 z"
       id="path22907"
       transform="scale(0.26458333)" />
    <path
       style="fill:#ff0000;stroke:#e90000;stroke-width:0.0039124;stroke-opacity:1"
       d="m 375.36637,723.92679 c 0.0146,-7.6e-4 0.0374,-7.5e-4 0.0508,10e-6 0.0133,7.6e-4 10e-4,0.001 -0.0265,0.001 -0.0279,-1e-5 -0.0388,-6.3e-4 -0.0242,-0.001 z"
       id="path22909"
       transform="scale(0.26458333)" />
    <path
       style="fill:#ff0000;stroke:#e90000;stroke-width:0.0039124;stroke-opacity:1"
       d="m 379.20312,723.93465 c -3.75533,-0.008 -6.2415,-0.0125 -7.16503,-0.0127 l -0.68457,-1.1e-4 v -0.01 -0.01 l 4.14941,10e-6 c 2.28218,0 4.29048,10e-4 4.46289,0.003 l 0.31348,0.003 v 0.015 0.015 l -0.32325,-9.6e-4 c -0.17778,-5.3e-4 -0.5166,-10e-4 -0.75293,-0.002 z"
       id="path22911"
       transform="scale(0.26458333)" />
    <path
       style="fill:#ff0000;stroke:#e90000;stroke-width:0.0078248;stroke-opacity:1"
       d="m 397.11328,724.04628 c -1.35661,-0.0317 -4.09471,-0.074 -5.66797,-0.0877 -0.11601,-10e-4 1.92744,-0.003 4.54102,-0.004 l 4.75195,-0.002 v 0.0205 c 0,0.0189 -0.002,0.0201 -0.0252,0.0155 -0.11194,-0.0224 -0.75745,-0.0242 -2.64863,-0.007 l -0.56836,0.005 v 0.034 0.034 l -0.0644,-10e-4 c -0.0355,-6.8e-4 -0.17871,-0.004 -0.31836,-0.007 z"
       id="path22913"
       transform="scale(0.26458333)" />
    <path
       style="fill:#ff0000;stroke:#e90000;stroke-width:0.0078248;stroke-opacity:1"
       d="m 391.28743,723.95514 c 0.0292,-0.002 0.0749,-0.002 0.10157,2e-5 0.0267,0.002 0.003,0.003 -0.0531,0.003 -0.0559,-10e-6 -0.0777,-10e-4 -0.0485,-0.003 z"
       id="path22915"
       transform="scale(0.26458333)" />
    <path
       style="fill:#ff0000;stroke:#e90000;stroke-width:0.0078248;stroke-opacity:1"
       d="m 391.32275,723.96341 c 0.006,-0.002 0.0124,-0.002 0.015,6.2e-4 0.003,0.003 -0.002,0.004 -0.0103,0.004 -0.009,-3.7e-4 -0.0109,-0.002 -0.005,-0.005 z"
       id="path22917"
       transform="scale(0.26458333)" />
    <path
       style="fill:#ff0000;stroke:#e90000;stroke-width:0.0078248;stroke-opacity:1"
       d="m 391.51562,723.97607 c -0.19778,-0.005 -0.30766,-0.0204 -0.1621,-0.0221 0.044,-4.9e-4 0.0801,0.002 0.0801,0.006 0,0.004 0.28487,0.0101 0.63868,0.0142 l 0.63867,0.007 -0.50782,-2.5e-4 c -0.27929,-1.3e-4 -0.58867,-0.002 -0.6875,-0.005 z m -0.12695,-0.0128 c -0.01,-0.002 -0.0255,-0.002 -0.0351,0 -0.01,0.002 -0.002,0.003 0.0176,0.003 0.0193,0 0.0273,-0.002 0.0176,-0.003 z"
       id="path22919"
       transform="scale(0.26458333)" />
    <path
       style="fill:#ff0000;stroke:#e90000;stroke-width:0.0039124;stroke-opacity:1"
       d="m 390.9229,723.95817 c 0.005,-9.3e-4 0.0119,-8.9e-4 0.0156,8e-5 0.004,9.8e-4 -2.4e-4,0.002 -0.009,0.002 -0.009,-4e-5 -0.0116,-8.4e-4 -0.007,-0.002 z"
       id="path22921"
       transform="scale(0.26458333)" />
    <path
       style="fill:#ff0000;stroke:#e90000;stroke-width:0.0039124;stroke-opacity:1"
       d="m 390.66211,723.97608 c -0.28467,-0.002 -0.65337,-0.004 -0.81934,-0.006 l -0.30175,-0.003 v -0.0112 -0.0112 l 0.0517,0.002 c 0.0285,10e-4 0.32334,0.004 0.65528,0.006 0.33193,0.002 0.6167,0.005 0.63281,0.006 0.0161,0.001 0.10869,0.002 0.20572,0.002 0.14466,-4.3e-4 0.18193,5.6e-4 0.20703,0.005 0.0168,0.003 0.0535,0.008 0.0814,0.009 0.0647,0.004 -0.0115,0.004 -0.71289,1.1e-4 z"
       id="path22923"
       transform="scale(0.26458333)" />
    <path
       style="fill:#ff0000;stroke:#e90000;stroke-width:0.0039124;stroke-opacity:1"
       d=""
       id="path22925"
       transform="scale(0.26458333)" />
    <path
       style="fill:#ff0000;stroke:#e90000;stroke-width:0.0039124;stroke-opacity:1"
       d="m 391.21785,723.96214 c 0.004,-9.9e-4 0.009,-9.3e-4 0.0117,1.4e-4 0.003,0.001 -4.7e-4,0.002 -0.007,0.002 -0.006,-8e-5 -0.009,-9.5e-4 -0.005,-0.002 z"
       id="path22927"
       transform="scale(0.26458333)" />
    <path
       style="fill:#ff0000;stroke:#e90000;stroke-width:0.0039124;stroke-opacity:1"
       d="m 391.24519,723.96214 c 0.004,-9.9e-4 0.009,-9.3e-4 0.0117,1.4e-4 0.003,0.001 -4.6e-4,0.002 -0.007,0.002 -0.006,-8e-5 -0.009,-9.5e-4 -0.005,-0.002 z"
       id="path22929"
       transform="scale(0.26458333)" />
    <path
       style="fill:#ff0000;stroke:#e90000;stroke-width:0.0039124;stroke-opacity:1"
       d="m 394.75391,724.13247 c -0.4416,-0.004 -2.1911,-0.014 -3.25586,-0.0192 -1.11136,-0.005 -5.36984,-0.0234 -5.55176,-0.0234 l -0.042,-10e-6 v -0.0299 -0.0299 l 0.80761,0.003 c 1.24098,0.004 3.81454,0.0151 5.14746,0.0219 0.40391,0.002 0.95059,0.004 1.21485,0.005 0.26426,8e-4 0.45146,9.1e-4 0.41601,2.3e-4 -0.0823,-0.002 -1.41511,-0.0121 -2.17187,-0.0171 -1.25789,-0.008 -3.19175,-0.0181 -4.26563,-0.0214 -0.37705,-0.001 -0.78969,-0.003 -0.91699,-0.004 l -0.23144,-0.002 v -0.0285 -0.0285 l 0.20605,-0.001 c 0.11333,-7.9e-4 0.24297,-6e-5 0.28809,0.002 0.0451,0.002 0.27099,0.003 0.50195,0.003 0.23096,1.9e-4 0.62822,0.001 0.88281,0.002 0.25459,10e-4 0.63955,0.003 0.85547,0.003 0.21592,8.8e-4 0.53408,0.003 0.70703,0.004 0.17295,10e-4 0.49639,0.003 0.71875,0.004 0.22237,10e-4 0.48516,0.003 0.58399,0.004 0.0988,10e-4 0.46533,0.004 0.81445,0.006 0.6871,0.004 1.79951,0.0131 2.40234,0.0193 0.91629,0.009 1.14724,0.012 1.21778,0.0142 l 0.0752,0.002 v 0.0582 0.0582 l -0.0244,-6.5e-4 c -0.0134,-3.6e-4 -0.18438,-0.002 -0.37988,-0.004 z m -1.07715,-0.0688 c -0.004,-9.8e-4 -0.01,-9.8e-4 -0.0137,0 -0.004,9.9e-4 -6.9e-4,0.002 0.007,0.002 0.008,0 0.0106,-8e-4 0.007,-0.002 z m 0.0528,-5e-5 c -0.005,-9.3e-4 -0.0136,-9.5e-4 -0.0195,-6e-5 -0.006,9e-4 -0.002,0.002 0.009,0.002 0.0107,3e-5 0.0156,-7.1e-4 0.0108,-0.002 z m 0.0723,-1.2e-4 c -0.0101,-8e-4 -0.0277,-8.1e-4 -0.0391,-2e-5 -0.0113,7.9e-4 -0.003,10e-4 0.0184,10e-4 0.0215,10e-6 0.0308,-6.4e-4 0.0206,-10e-4 z m 0.0624,7e-5 c -0.006,-9e-4 -0.0156,-9e-4 -0.0215,0 -0.006,8.9e-4 -10e-4,0.002 0.0108,0.002 0.0118,0 0.0166,-7.4e-4 0.0107,-0.002 z"
       id="path22931"
       transform="scale(0.26458333)" />
    <path
       style="fill:#ff0000;stroke:#e90000;stroke-width:0.0039124;stroke-opacity:1"
       d=""
       id="path22933"
       transform="scale(0.26458333)" />
    <path
       style="fill:#ff0000;stroke:#e90000;stroke-width:0.0039124;stroke-opacity:1"
       d="m 394.0485,724.00245 c -8.9e-4,-8e-4 -0.28024,-0.003 -0.62077,-0.006 -0.6262,-0.005 -0.71484,-0.006 -0.71484,-0.0125 0,-0.006 0.32861,-0.003 1.37305,0.0138 0.30918,0.005 0.31239,0.005 0.1403,0.006 -0.0969,3.2e-4 -0.17684,-8e-5 -0.17774,-8.8e-4 z"
       id="path22935"
       transform="scale(0.26458333)" />
    <path
       style="fill:#ff0000;stroke:#e90000;stroke-width:0.0039124;stroke-opacity:1"
       d="m 392.54395,723.99317 c 0.0457,-6.3e-4 0.12036,-6.3e-4 0.16601,0 0.0457,6.2e-4 0.008,0.001 -0.083,0.001 -0.0913,0 -0.12866,-5.1e-4 -0.083,-0.001 z"
       id="path22937"
       transform="scale(0.26458333)" />
    <path
       style="fill:#ff0000;stroke:#e90000;stroke-width:0.0039124;stroke-opacity:1"
       d="m 392.65527,723.98541 c 0.0102,-8e-4 0.0269,-8e-4 0.0371,0 0.0102,8e-4 0.002,10e-4 -0.0186,10e-4 -0.0204,0 -0.0288,-6.6e-4 -0.0186,-10e-4 z"
       id="path22939"
       transform="scale(0.26458333)" />
    <path
       style="fill:#ff0000;stroke:#e90000;stroke-width:0.0039124;stroke-opacity:1"
       d="m 392.38184,723.98536 c 0.0467,-6.3e-4 0.12319,-6.3e-4 0.16992,0 0.0467,6.2e-4 0.008,10e-4 -0.085,10e-4 -0.0935,0 -0.13169,-5.1e-4 -0.085,-10e-4 z"
       id="path22941"
       transform="scale(0.26458333)" />
    <path
       style="fill:#ff0000;stroke:#e90000;stroke-width:0.0039124;stroke-opacity:1"
       d="m 394.95703,724.00762 c -0.5408,-0.009 -0.76667,-0.0126 -0.92847,-0.013 -0.1003,-2.6e-4 -0.17941,-0.002 -0.17578,-0.003 0.004,-0.002 -0.0536,-0.002 -0.1272,-0.002 -0.0736,4.6e-4 -0.13379,-5.9e-4 -0.13379,-0.002 10e-6,-0.003 -0.0875,-0.004 -0.43029,-0.004 -0.0831,-1.2e-4 -0.14897,-0.002 -0.14648,-0.003 0.002,-0.002 -0.0394,-0.003 -0.0931,-0.003 -0.0537,-8e-5 -0.29101,-0.003 -0.52734,-0.006 -0.42807,-0.006 -0.67659,-0.007 -0.6735,-0.004 8.9e-4,8.6e-4 0.20026,0.004 0.44303,0.006 0.4385,0.004 0.54763,0.007 0.54297,0.0113 -0.004,0.004 -0.54415,10e-4 -0.9375,-0.004 -0.18906,-0.003 -0.36221,-0.004 -0.38476,-0.004 -0.0262,3.1e-4 -0.0382,-7.3e-4 -0.0332,-0.003 0.006,-0.003 0.003,-0.003 -0.0117,-0.003 -0.0107,0 -0.0239,-7.7e-4 -0.0293,-0.002 -0.0242,-0.004 -0.0352,-0.008 -0.0352,-0.0111 0,-0.003 0.1342,-0.003 0.16211,3.1e-4 0.002,2.1e-4 0.84062,-2.5e-4 1.86328,-10e-4 1.36283,-10e-4 1.59806,-6.8e-4 0.88086,10e-4 -0.53818,0.002 -1.21318,0.003 -1.5,0.004 -0.48366,10e-4 -0.50448,10e-4 -0.28711,0.004 0.86569,0.0112 1.67104,0.0228 2.28906,0.0328 0.19551,0.003 0.38228,0.006 0.41504,0.006 0.0371,1e-5 0.0596,0.001 0.0596,0.004 0,0.002 -0.009,0.004 -0.0205,0.003 -0.0113,-3.6e-4 -0.0926,-0.002 -0.18067,-0.003 z m -3.25976,-0.0355 c -0.13776,-0.003 -0.25677,-0.009 -0.29276,-0.0136 -0.0165,-0.002 -0.017,-0.002 -0.0105,0.004 0.006,0.006 0.0191,0.007 0.10916,0.01 0.0563,0.002 0.15504,0.003 0.2195,0.003 l 0.11718,2e-5 z m -0.34571,-0.0112 c 0.005,-0.002 -4e-5,-0.003 -0.0176,-0.003 -0.0184,8e-5 -0.0227,9.8e-4 -0.0156,0.003 0.0129,0.004 0.0236,0.004 0.0332,0 z m 0.28809,10e-4 c -0.0177,-7.3e-4 -0.0467,-7.3e-4 -0.0645,0 -0.0177,7.2e-4 -0.003,0.001 0.0322,0.001 0.0355,0 0.05,-5.9e-4 0.0322,-0.001 z"
       id="path22943"
       transform="scale(0.26458333)" />
    <path
       style="fill:#ff0000;stroke:#e90000;stroke-width:0.0156496;stroke-opacity:1"
       d="m 380.17701,743.06588 c -0.26678,-0.1875 -0.30718,-0.21895 -0.25904,-0.20167 0.015,0.005 0.0273,0.004 0.0273,-0.004 0,-0.008 0.0587,0.0102 0.13054,0.0395 0.40007,0.16311 1.12445,0.26459 2.27571,0.31882 0.19336,0.009 0.38672,0.0186 0.42969,0.0212 0.043,0.003 -0.4668,0.006 -1.13281,0.007 l -1.21094,0.002 z"
       id="path22945"
       transform="scale(0.26458333)" />
    <path
       style="fill:#ff0000;stroke:#e90000;stroke-width:0.0156496;stroke-opacity:1"
       d="m 387.89844,743.31132 c -2.43725,-0.0157 -3.84368,-0.0397 -5.11719,-0.0874 -0.16328,-0.006 -0.35902,-0.0129 -0.43497,-0.015 -0.0759,-0.002 -0.15681,-0.008 -0.17969,-0.0123 -0.0229,-0.005 -0.13528,-0.012 -0.24978,-0.0164 -0.11451,-0.004 -0.21485,-0.012 -0.22298,-0.0171 -0.008,-0.005 -0.0515,-0.008 -0.0965,-0.006 -0.0449,0.002 -0.0923,-6.2e-4 -0.10515,-0.005 -0.0129,-0.004 -0.13946,-0.0198 -0.28125,-0.0342 -0.47715,-0.0484 -0.82405,-0.11939 -1.08594,-0.22227 -0.0773,-0.0304 -0.15666,-0.0562 -0.17626,-0.0574 -0.0197,-10e-4 -0.17757,-0.11074 -0.35219,-0.24434 -0.72629,-0.55567 -0.94708,-0.72704 -0.94758,-0.73548 -7.6e-4,-0.0127 1.34255,-1.00639 1.89009,-1.39813 1.35943,-0.9726 5.20868,-3.68582 10,-7.04871 4.22493,-2.96534 3.75997,-2.64581 3.84991,-2.64581 0.0469,0 0.0723,0.006 0.0634,0.0141 -0.008,0.008 -0.96054,0.67787 -2.1164,1.48919 -5.62967,3.95155 -8.69721,6.11554 -10.9375,7.71584 -1.92324,1.37381 -2.42327,1.73772 -2.49904,1.81875 l -0.0381,0.0408 0.0615,0.0642 c 0.1537,0.16026 0.70458,0.59 0.96964,0.75641 0.0737,0.0462 0.19015,0.10577 0.25886,0.13226 0.52713,0.20328 1.67536,0.31332 3.7471,0.3591 0.72525,0.016 7.34735,0.0422 14.42578,0.0571 3.78001,0.008 4.49609,0.0128 4.49609,0.0307 0,0.0175 -0.0935,0.0221 -0.51953,0.0256 l -0.51953,0.004 0.51953,0.004 c 0.44975,0.003 0.51953,0.007 0.51953,0.0271 0,0.0208 -0.73884,0.0231 -6.5664,0.0208 -3.61153,-10e-4 -7.37149,-0.008 -8.35547,-0.0142 z m -9.07813,-1.47631 c 0,-0.0134 -0.007,-0.0199 -0.0159,-0.0145 -0.009,0.005 -0.0118,0.0164 -0.007,0.0244 0.0134,0.0217 0.0228,0.0176 0.0228,-0.01 z"
       id="path22947"
       transform="scale(0.26458333)" />
    <path
       style="fill:#ff0000;stroke:#e90000;stroke-width:0.0156496;stroke-opacity:1"
       d="m 379.15261,742.347 c -0.36293,-0.2553 -0.66,-0.46898 -0.66015,-0.47483 -3.7e-4,-0.0145 1.45298,-1.0335 1.46168,-1.0248 0.004,0.004 -0.29544,0.23125 -0.66501,0.50541 -0.36957,0.27416 -0.67173,0.50205 -0.67147,0.50644 2.6e-4,0.004 0.25514,0.20303 0.5664,0.44144 0.6373,0.48814 0.66582,0.51075 0.64406,0.51062 -0.009,-5e-5 -0.31257,-0.20898 -0.67551,-0.46428 z"
       id="path22949"
       transform="scale(0.26458333)" />
    <path
       style="fill:#ff0000;stroke:#e90000;stroke-width:0.0156496;stroke-opacity:1"
       d="m 376.80469,740.63482 c -0.19162,-0.12804 -3.5323,-2.466 -8.4961,-5.94597 -2.48555,-1.74254 -2.5039,-1.7558 -2.5039,-1.80807 0,-0.029 0.004,-0.0527 0.008,-0.0527 0.005,0 0.24187,0.16412 0.52735,0.36471 0.54656,0.38405 3.29476,2.31026 6.91747,4.84847 2.21036,1.54865 2.76801,1.93799 3.39537,2.37054 l 0.3563,0.24566 0.29995,-0.20684 c 1.23388,-0.8509 6.87364,-4.79992 12.18891,-8.53481 l 1.63896,-1.15165 0.0806,0.005 0.0806,0.005 -0.71173,0.49937 c -7.74238,5.4323 -13.55036,9.49308 -13.57701,9.49266 -0.005,-8e-5 -0.0976,-0.0589 -0.20503,-0.13065 z"
       id="path22951"
       transform="scale(0.26458333)" />
    <path
       style="fill:#ff0000;stroke:#e90000;stroke-width:0.0156496;stroke-opacity:1"
       d="m 376.76493,740.59175 c -0.30226,-0.20584 -1.60207,-1.11468 -5.64774,-3.94899 -5.59391,-3.91896 -5.29688,-3.70756 -5.29688,-3.7699 0,-0.0241 0.005,-0.0288 0.0195,-0.0175 0.0108,0.008 0.46602,0.32805 1.01172,0.71019 0.54571,0.38213 2.12071,1.48577 3.5,2.45253 3.77445,2.64552 5.10363,3.57546 5.91854,4.14083 l 0.7398,0.51326 0.76849,-0.5341 c 1.93864,-1.34737 7.48442,-5.23236 12.33565,-8.6415 0.97467,-0.68493 1.02307,-0.71678 1.08248,-0.71223 0.0605,0.005 -0.002,0.0497 -2.25467,1.62921 -7.4766,5.24214 -11.86245,8.30638 -11.92124,8.32893 -0.0123,0.005 -0.12476,-0.0615 -0.25568,-0.15068 z"
       id="path22953"
       transform="scale(0.26458333)" />
    <path
       style="fill:#ff0000;stroke:#e90000;stroke-width:0.0156496;stroke-opacity:1"
       d=""
       id="path22955"
       transform="scale(0.26458333)" />
    <path
       style="fill:#ff0000;stroke:#e90000;stroke-width:0.00553297;stroke-opacity:1"
       d="m 375.37253,741.93907 c 0.0618,-0.064 0.0624,-0.0816 0.005,-0.12584 -0.0909,-0.0695 -1.4185,-1.01098 -2.5236,-1.78962 -0.12853,-0.0906 -0.23246,-0.1659 -0.23095,-0.16741 0.003,-0.003 2.86499,2.0046 2.86461,2.0093 -2.7e-4,0.003 -0.14326,0.11239 -0.15133,0.11538 -0.003,0.001 0.0133,-0.0177 0.0367,-0.0418 z"
       id="path22957"
       transform="scale(0.26458333)" />
    <path
       style="fill:#ff0000;stroke:#e90000;stroke-width:0.00553297;stroke-opacity:1"
       d="m 376.99011,740.76659 c -0.008,-0.006 -0.025,-0.0161 -0.0387,-0.0231 -0.0239,-0.0124 -0.1372,-0.0904 -0.59662,-0.4109 -0.3352,-0.23386 -2.95394,-2.06621 -3.51343,-2.45838 -0.27801,-0.19486 -0.99645,-0.69826 -1.59652,-1.11865 -0.60007,-0.42039 -1.10099,-0.77161 -1.11314,-0.78048 l -0.0221,-0.0161 0.0249,0.002 c 0.0229,0.002 0.14668,0.0874 1.57718,1.08975 3.37908,2.36771 4.8713,3.41047 5.08786,3.55538 0.10171,0.0681 0.20097,0.1269 0.21409,0.1269 0.006,0 0.0482,-0.0253 0.0943,-0.0562 0.152,-0.10198 1.00404,-0.69259 1.70144,-1.1794 0.0754,-0.0526 0.13819,-0.0957 0.13949,-0.0957 10e-4,0 0.002,0.007 0.002,0.0152 -2.4e-4,0.0138 -0.0618,0.058 -0.69397,0.49856 -0.94001,0.655 -1.19082,0.82899 -1.20059,0.83285 -0.005,0.002 -0.0175,0.009 -0.0289,0.0161 -0.0243,0.0151 -0.0203,0.0149 -0.0374,0.002 z m 0.0266,-0.0139 c -0.008,-0.006 -0.0891,-0.0473 -0.0857,-0.0439 0.0115,0.0116 0.0787,0.0506 0.0828,0.048 0.003,-0.002 0.004,-0.003 0.003,-0.004 z"
       id="path22959"
       transform="scale(0.26458333)" />
    <path
       style="fill:#ff0000;stroke:#e90000;stroke-width:0.00553297;stroke-opacity:1"
       d=""
       id="path22961"
       transform="scale(0.26458333)" />
    <path
       style="fill:#ff0000;stroke:#e90000;stroke-width:0.00553297;stroke-opacity:1"
       d="m 376.53436,740.5143 c -0.25218,-0.17751 -1.8138,-1.27421 -3.47025,-2.43712 -2.52001,-1.76915 -3.00921,-2.11464 -2.99621,-2.11605 0.0127,-10e-4 0.0622,0.0311 0.27446,0.18002 3.94715,2.76976 6.65222,4.66584 6.65876,4.66734 0.005,10e-4 0.44461,-0.30378 0.97784,-0.67742 0.82368,-0.57716 1.01732,-0.70952 0.96601,-0.66031 -0.0125,0.012 -1.94464,1.36726 -1.94851,1.36675 -0.002,-2.5e-4 -0.20992,-0.1457 -0.4621,-0.32321 z"
       id="path22963"
       transform="scale(0.26458333)" />
    <path
       style="fill:#ff0000;stroke:#e90000;stroke-width:0.0039124;stroke-opacity:1"
       d="m 375.27344,739.57812 c -10e-4,-0.002 -6.6e-4,-0.004 0.001,-0.004 0.002,0 0.005,0.002 0.006,0.004 10e-4,0.002 6.6e-4,0.004 -10e-4,0.004 -0.002,0 -0.005,-0.002 -0.006,-0.004 z"
       id="path22965"
       transform="scale(0.26458333)" />
    <g
       id="g22970">
      <path
         style="fill:#ff0000;stroke:#e90000;stroke-width:0.0039124;stroke-opacity:1"
         d="m 376.8571,740.70211 c -0.1752,-0.12194 -1.29205,-0.90421 -2.09343,-1.46629 -1.82854,-1.28252 -2.15259,-1.51032 -2.15089,-1.51201 0.002,-0.002 0.57986,0.40259 2.39894,1.67651 0.1375,0.0963 0.26142,0.18305 0.27539,0.1928 0.014,0.01 0.21435,0.14979 0.44531,0.31123 0.71209,0.49772 1.18027,0.82388 1.23823,0.86259 0.023,0.0154 0.0365,0.0177 0.0495,0.009 0.004,-0.003 0.009,-0.005 0.0106,-0.003 10e-4,0.001 0.002,4.2e-4 0.002,-0.002 0,-0.002 0.003,-0.005 0.006,-0.005 0.003,0 0.006,-0.002 0.006,-0.004 0,-0.002 0.002,-0.004 0.005,-0.004 0.003,0 0.0207,-0.0109 0.04,-0.0242 0.0667,-0.0459 0.59407,-0.41216 0.73636,-0.51143 0.16323,-0.11387 0.15235,-0.10661 0.15235,-0.10166 0,0.007 -0.95214,0.67023 -0.97409,0.67865 -0.003,10e-4 -0.0691,-0.0426 -0.14733,-0.0971 z"
         id="path22967"
         transform="scale(0.26458333)" />
    </g>
    <g
       id="g4915"
       transform="translate(-9.8819914,-0.19890014)"
       inkscape:export-filename="pivot1.pdf"
       inkscape:export-xdpi="96"
       inkscape:export-ydpi="96">
      <rect
         style="fill:#ffffff;fill-opacity:0;stroke:#ffffff;stroke-width:0.264999;stroke-opacity:1"
         id="rect1484"
         width="84.938255"
         height="45.836723"
         x="67.200668"
         y="168.17694"
         inkscape:export-filename="pivot0.pdf"
         inkscape:export-xdpi="96"
         inkscape:export-ydpi="96" />
    </g>
  </g>
</svg>
